<svg width="96" height="20" viewBox="0 0 96 20" fill="none" xmlns="http://www.w3.org/2000/svg">
<path d="M93.464 19.6318V7.36199H95.6377V19.6318H93.464ZM94.5508 5.15342C94.1483 5.15342 93.8061 5.01027 93.5244 4.72397C93.2426 4.43768 93.1017 4.09003 93.1017 3.68104C93.1017 3.25841 93.2426 2.91076 93.5244 2.6381C93.8061 2.3518 94.1483 2.20866 94.5508 2.20866C94.9668 2.20866 95.3089 2.3518 95.5773 2.6381C95.8591 2.91076 96 3.25841 96 3.68104C96 4.09003 95.8591 4.43768 95.5773 4.72397C95.3089 5.01027 94.9668 5.15342 94.5508 5.15342Z" fill="white"/>
<path d="M93.464 19.6318V7.36199H95.6377V19.6318H93.464ZM94.5508 5.15342C94.1483 5.15342 93.8061 5.01027 93.5244 4.72397C93.2426 4.43768 93.1017 4.09003 93.1017 3.68104C93.1017 3.25841 93.2426 2.91076 93.5244 2.6381C93.8061 2.3518 94.1483 2.20866 94.5508 2.20866C94.9668 2.20866 95.3089 2.3518 95.5773 2.6381C95.8591 2.91076 96 3.25841 96 3.68104C96 4.09003 95.8591 4.43768 95.5773 4.72397C95.3089 5.01027 94.9668 5.15342 94.5508 5.15342Z" fill="white"/>
<path d="M83.3525 19.7954C82.2522 19.7954 81.2459 19.5159 80.3335 18.9569C79.421 18.3844 78.6897 17.6209 78.1396 16.6666C77.6029 15.7123 77.3345 14.6557 77.3345 13.4969C77.3345 12.338 77.6029 11.2815 78.1396 10.3272C78.6897 9.37283 79.421 8.61619 80.3335 8.05723C81.2459 7.48464 82.2522 7.19834 83.3525 7.19834C84.1844 7.19834 84.9627 7.35512 85.6872 7.66868C86.4252 7.98225 87.0626 8.41851 87.5993 8.97747V7.36194H89.612V19.6318H87.5993V18.0163C87.0626 18.5616 86.4252 18.9978 85.6872 19.325C84.9627 19.6386 84.1844 19.7954 83.3525 19.7954ZM83.6343 17.7913C84.3991 17.7913 85.0901 17.6004 85.7074 17.2187C86.338 16.8234 86.8345 16.3053 87.1968 15.6645C87.5725 15.0101 87.7603 14.2876 87.7603 13.4969C87.7603 12.7061 87.5725 11.9904 87.1968 11.3496C86.8345 10.6952 86.338 10.1772 85.7074 9.79546C85.0901 9.4001 84.3991 9.20241 83.6343 9.20241C82.8695 9.20241 82.1717 9.4001 81.5411 9.79546C80.9239 10.1772 80.4274 10.6952 80.0517 11.3496C79.6894 11.9904 79.5082 12.7061 79.5082 13.4969C79.5082 14.2876 79.6894 15.0101 80.0517 15.6645C80.4274 16.3053 80.9239 16.8234 81.5411 17.2187C82.1717 17.6004 82.8695 17.7913 83.6343 17.7913Z" fill="white"/>
<path d="M83.3525 19.7954C82.2522 19.7954 81.2459 19.5159 80.3335 18.9569C79.421 18.3844 78.6897 17.6209 78.1396 16.6666C77.6029 15.7123 77.3345 14.6557 77.3345 13.4969C77.3345 12.338 77.6029 11.2815 78.1396 10.3272C78.6897 9.37283 79.421 8.61619 80.3335 8.05723C81.2459 7.48464 82.2522 7.19834 83.3525 7.19834C84.1844 7.19834 84.9627 7.35512 85.6872 7.66868C86.4252 7.98225 87.0626 8.41851 87.5993 8.97747V7.36194H89.612V19.6318H87.5993V18.0163C87.0626 18.5616 86.4252 18.9978 85.6872 19.325C84.9627 19.6386 84.1844 19.7954 83.3525 19.7954ZM83.6343 17.7913C84.3991 17.7913 85.0901 17.6004 85.7074 17.2187C86.338 16.8234 86.8345 16.3053 87.1968 15.6645C87.5725 15.0101 87.7603 14.2876 87.7603 13.4969C87.7603 12.7061 87.5725 11.9904 87.1968 11.3496C86.8345 10.6952 86.338 10.1772 85.7074 9.79546C85.0901 9.4001 84.3991 9.20241 83.6343 9.20241C82.8695 9.20241 82.1717 9.4001 81.5411 9.79546C80.9239 10.1772 80.4274 10.6952 80.0517 11.3496C79.6894 11.9904 79.5082 12.7061 79.5082 13.4969C79.5082 14.2876 79.6894 15.0101 80.0517 15.6645C80.4274 16.3053 80.9239 16.8234 81.5411 17.2187C82.1717 17.6004 82.8695 17.7913 83.6343 17.7913Z" fill="white"/>
<path d="M75.5811 19.8772C75.1383 19.8772 74.7626 19.7272 74.454 19.4273C74.1588 19.1137 74.0112 18.732 74.0112 18.2821C74.0112 17.8322 74.1588 17.4573 74.454 17.1574C74.7626 16.8438 75.1383 16.687 75.5811 16.687C76.0373 16.687 76.413 16.8438 76.7082 17.1574C77.0034 17.4573 77.151 17.8322 77.151 18.2821C77.151 18.732 77.0034 19.1137 76.7082 19.4273C76.413 19.7272 76.0373 19.8772 75.5811 19.8772Z" fill="white"/>
<path d="M75.5811 19.8772C75.1383 19.8772 74.7626 19.7272 74.454 19.4273C74.1588 19.1137 74.0112 18.732 74.0112 18.2821C74.0112 17.8322 74.1588 17.4573 74.454 17.1574C74.7626 16.8438 75.1383 16.687 75.5811 16.687C76.0373 16.687 76.413 16.8438 76.7082 17.1574C77.0034 17.4573 77.151 17.8322 77.151 18.2821C77.151 18.732 77.0034 19.1137 76.7082 19.4273C76.413 19.7272 76.0373 19.8772 75.5811 19.8772Z" fill="white"/>
<path d="M69.3374 19.6318L64.3459 12.8833L68.4519 7.36191H71.8936L67.8682 12.6175L73.1012 19.6318H69.3374ZM61.347 19.6318V0H64.507V19.6318H61.347Z" fill="white"/>
<path d="M69.3374 19.6318L64.3459 12.8833L68.4519 7.36191H71.8936L67.8682 12.6175L73.1012 19.6318H69.3374ZM61.347 19.6318V0H64.507V19.6318H61.347Z" fill="white"/>
<path d="M56.8519 20C56.0871 20 55.3021 19.8705 54.497 19.6115C53.6919 19.3388 53.0479 18.9571 52.5648 18.4663L53.3699 15.3579C53.759 15.9305 54.2823 16.4213 54.9398 16.8303C55.6107 17.2257 56.3018 17.4233 57.0129 17.4233C57.5496 17.4233 57.9388 17.3143 58.1803 17.0961C58.4352 16.8644 58.5627 16.5849 58.5627 16.2577C58.5627 15.8896 58.4352 15.6238 58.1803 15.4602C57.9253 15.2829 57.6704 15.1466 57.4154 15.0512L55.7449 14.4172C55.396 14.2673 54.9868 14.0696 54.5172 13.8242C54.0475 13.5652 53.6383 13.2039 53.2894 12.7403C52.954 12.2632 52.7862 11.6429 52.7862 10.8794C52.7862 10.1841 52.954 9.54337 53.2894 8.95715C53.6249 8.37092 54.1079 7.90058 54.7386 7.54612C55.3826 7.17802 56.1542 6.99397 57.0532 6.99397C57.8582 6.99397 58.6231 7.13712 59.3476 7.42342C60.0856 7.69608 60.6425 8.03691 61.0182 8.4459L60.2735 11.4725C59.8441 10.8726 59.3275 10.4091 58.7237 10.0819C58.1199 9.74106 57.5362 9.57064 56.9727 9.57064C56.503 9.57064 56.1542 9.6797 55.926 9.89784C55.6979 10.1023 55.5839 10.3477 55.5839 10.634C55.5839 10.8522 55.6644 11.0567 55.8254 11.2475C55.9864 11.4384 56.2481 11.602 56.6104 11.7383L58.1803 12.3518C58.5962 12.5018 59.0524 12.7131 59.5489 12.9857C60.0454 13.2448 60.468 13.6129 60.8169 14.09C61.1792 14.5672 61.3603 15.2216 61.3603 16.0532C61.3603 17.2257 60.9377 18.18 60.0923 18.9162C59.2604 19.6387 58.1803 20 56.8519 20Z" fill="white"/>
<path d="M56.8519 20C56.0871 20 55.3021 19.8705 54.497 19.6115C53.6919 19.3388 53.0479 18.9571 52.5648 18.4663L53.3699 15.3579C53.759 15.9305 54.2823 16.4213 54.9398 16.8303C55.6107 17.2257 56.3018 17.4233 57.0129 17.4233C57.5496 17.4233 57.9388 17.3143 58.1803 17.0961C58.4352 16.8644 58.5627 16.5849 58.5627 16.2577C58.5627 15.8896 58.4352 15.6238 58.1803 15.4602C57.9253 15.2829 57.6704 15.1466 57.4154 15.0512L55.7449 14.4172C55.396 14.2673 54.9868 14.0696 54.5172 13.8242C54.0475 13.5652 53.6383 13.2039 53.2894 12.7403C52.954 12.2632 52.7862 11.6429 52.7862 10.8794C52.7862 10.1841 52.954 9.54337 53.2894 8.95715C53.6249 8.37092 54.1079 7.90058 54.7386 7.54612C55.3826 7.17802 56.1542 6.99397 57.0532 6.99397C57.8582 6.99397 58.6231 7.13712 59.3476 7.42342C60.0856 7.69608 60.6425 8.03691 61.0182 8.4459L60.2735 11.4725C59.8441 10.8726 59.3275 10.4091 58.7237 10.0819C58.1199 9.74106 57.5362 9.57064 56.9727 9.57064C56.503 9.57064 56.1542 9.6797 55.926 9.89784C55.6979 10.1023 55.5839 10.3477 55.5839 10.634C55.5839 10.8522 55.6644 11.0567 55.8254 11.2475C55.9864 11.4384 56.2481 11.602 56.6104 11.7383L58.1803 12.3518C58.5962 12.5018 59.0524 12.7131 59.5489 12.9857C60.0454 13.2448 60.468 13.6129 60.8169 14.09C61.1792 14.5672 61.3603 15.2216 61.3603 16.0532C61.3603 17.2257 60.9377 18.18 60.0923 18.9162C59.2604 19.6387 58.1803 20 56.8519 20Z" fill="white"/>
<path d="M45.7795 19.918C44.6792 19.918 43.6729 19.6317 42.7605 19.0592C41.848 18.4729 41.1168 17.6958 40.5666 16.7279C40.0299 15.7463 39.7615 14.6693 39.7615 13.4968C39.7615 12.3244 40.0299 11.2542 40.5666 10.2862C41.1168 9.30462 41.848 8.52754 42.7605 7.95494C43.6729 7.36872 44.6792 7.0756 45.7795 7.0756C46.5712 7.0756 47.3025 7.21875 47.9734 7.50505C48.6443 7.79134 49.2145 8.19352 49.6842 8.71158V7.3619H52.4416V19.6317H49.6842V18.2821C49.2145 18.7865 48.6443 19.1887 47.9734 19.4886C47.3025 19.7749 46.5712 19.918 45.7795 19.918ZM46.1619 17.0755C46.806 17.0755 47.383 16.9119 47.8929 16.5847C48.4162 16.2575 48.8321 15.8281 49.1407 15.2964C49.4493 14.7511 49.6036 14.1512 49.6036 13.4968C49.6036 12.8424 49.4493 12.2494 49.1407 11.7177C48.8321 11.1724 48.4162 10.7361 47.8929 10.4089C47.383 10.0817 46.8127 9.91812 46.1821 9.91812C45.538 9.91812 44.9543 10.0817 44.431 10.4089C43.9211 10.7361 43.5119 11.1724 43.2033 11.7177C42.8946 12.2494 42.7403 12.8424 42.7403 13.4968C42.7403 14.1512 42.8946 14.7511 43.2033 15.2964C43.5119 15.8281 43.9211 16.2575 44.431 16.5847C44.9543 16.9119 45.5313 17.0755 46.1619 17.0755Z" fill="white"/>
<path d="M45.7795 19.918C44.6792 19.918 43.6729 19.6317 42.7605 19.0592C41.848 18.4729 41.1168 17.6958 40.5666 16.7279C40.0299 15.7463 39.7615 14.6693 39.7615 13.4968C39.7615 12.3244 40.0299 11.2542 40.5666 10.2862C41.1168 9.30462 41.848 8.52754 42.7605 7.95494C43.6729 7.36872 44.6792 7.0756 45.7795 7.0756C46.5712 7.0756 47.3025 7.21875 47.9734 7.50505C48.6443 7.79134 49.2145 8.19352 49.6842 8.71158V7.3619H52.4416V19.6317H49.6842V18.2821C49.2145 18.7865 48.6443 19.1887 47.9734 19.4886C47.3025 19.7749 46.5712 19.918 45.7795 19.918ZM46.1619 17.0755C46.806 17.0755 47.383 16.9119 47.8929 16.5847C48.4162 16.2575 48.8321 15.8281 49.1407 15.2964C49.4493 14.7511 49.6036 14.1512 49.6036 13.4968C49.6036 12.8424 49.4493 12.2494 49.1407 11.7177C48.8321 11.1724 48.4162 10.7361 47.8929 10.4089C47.383 10.0817 46.8127 9.91812 46.1821 9.91812C45.538 9.91812 44.9543 10.0817 44.431 10.4089C43.9211 10.7361 43.5119 11.1724 43.2033 11.7177C42.8946 12.2494 42.7403 12.8424 42.7403 13.4968C42.7403 14.1512 42.8946 14.7511 43.2033 15.2964C43.5119 15.8281 43.9211 16.2575 44.431 16.5847C44.9543 16.9119 45.5313 17.0755 46.1619 17.0755Z" fill="white"/>
<path d="M30.3668 4.23318V1.22707H42.7852V4.23318H38.2566V19.6318H34.8954V4.23318H30.3668Z" fill="white"/>
<path d="M30.3668 4.23318V1.22707H42.7852V4.23318H38.2566V19.6318H34.8954V4.23318H30.3668Z" fill="white"/>
<path d="M21.3019 19.7954C20.2016 19.7954 19.1953 19.5159 18.2829 18.9569C17.3704 18.3843 16.6392 17.6209 16.089 16.6665C15.5523 15.7122 15.2839 14.6556 15.2839 13.4968C15.2839 12.338 15.5523 11.2814 16.089 10.3271C16.6392 9.3728 17.3704 8.61616 18.2829 8.0572C19.1953 7.48461 20.2016 7.19831 21.3019 7.19831C22.0936 7.19831 22.8383 7.34146 23.536 7.62775C24.2337 7.91405 24.851 8.30941 25.3877 8.81384V0H27.5614V19.6318H25.5487V18.0162C25.012 18.5615 24.3746 18.9978 23.6366 19.325C22.9121 19.6386 22.1338 19.7954 21.3019 19.7954ZM21.5837 17.7913C22.3485 17.7913 23.0395 17.6004 23.6568 17.2187C24.2874 16.8233 24.7839 16.3053 25.1462 15.6645C25.5219 15.0101 25.7097 14.2876 25.7097 13.4968C25.7097 12.7061 25.5219 11.9904 25.1462 11.3496C24.7839 10.6952 24.2874 10.1772 23.6568 9.79543C23.0395 9.40007 22.3485 9.20238 21.5837 9.20238C20.8189 9.20238 20.1211 9.40007 19.4905 9.79543C18.8733 10.1772 18.3768 10.6952 18.0011 11.3496C17.6388 11.9904 17.4577 12.7061 17.4577 13.4968C17.4577 14.2876 17.6388 15.0101 18.0011 15.6645C18.3768 16.3053 18.8733 16.8233 19.4905 17.2187C20.1211 17.6004 20.8189 17.7913 21.5837 17.7913Z" fill="white"/>
<path d="M21.3019 19.7954C20.2016 19.7954 19.1953 19.5159 18.2829 18.9569C17.3704 18.3843 16.6392 17.6209 16.089 16.6665C15.5523 15.7122 15.2839 14.6556 15.2839 13.4968C15.2839 12.338 15.5523 11.2814 16.089 10.3271C16.6392 9.3728 17.3704 8.61616 18.2829 8.0572C19.1953 7.48461 20.2016 7.19831 21.3019 7.19831C22.0936 7.19831 22.8383 7.34146 23.536 7.62775C24.2337 7.91405 24.851 8.30941 25.3877 8.81384V0H27.5614V19.6318H25.5487V18.0162C25.012 18.5615 24.3746 18.9978 23.6366 19.325C22.9121 19.6386 22.1338 19.7954 21.3019 19.7954ZM21.5837 17.7913C22.3485 17.7913 23.0395 17.6004 23.6568 17.2187C24.2874 16.8233 24.7839 16.3053 25.1462 15.6645C25.5219 15.0101 25.7097 14.2876 25.7097 13.4968C25.7097 12.7061 25.5219 11.9904 25.1462 11.3496C24.7839 10.6952 24.2874 10.1772 23.6568 9.79543C23.0395 9.40007 22.3485 9.20238 21.5837 9.20238C20.8189 9.20238 20.1211 9.40007 19.4905 9.79543C18.8733 10.1772 18.3768 10.6952 18.0011 11.3496C17.6388 11.9904 17.4577 12.7061 17.4577 13.4968C17.4577 14.2876 17.6388 15.0101 18.0011 15.6645C18.3768 16.3053 18.8733 16.8233 19.4905 17.2187C20.1211 17.6004 20.8189 17.7913 21.5837 17.7913Z" fill="white"/>
<path d="M6.01798 19.7954C4.9177 19.7954 3.91135 19.5159 2.99893 18.9569C2.0865 18.3844 1.35522 17.6209 0.805081 16.6666C0.26836 15.7123 0 14.6557 0 13.4969C0 12.338 0.26836 11.2815 0.805081 10.3272C1.35522 9.37283 2.0865 8.61619 2.99893 8.05723C3.91135 7.48464 4.9177 7.19834 6.01798 7.19834C6.8499 7.19834 7.62814 7.35512 8.35271 7.66868C9.0907 7.98225 9.72806 8.41851 10.2648 8.97747V7.36194H12.2775V19.6318H10.2648V18.0163C9.72806 18.5616 9.0907 18.9978 8.35271 19.325C7.62814 19.6386 6.8499 19.7954 6.01798 19.7954ZM6.29976 17.7913C7.06458 17.7913 7.75561 17.6004 8.37284 17.2187C9.00349 16.8234 9.49995 16.3053 9.86224 15.6645C10.2379 15.0101 10.4258 14.2876 10.4258 13.4969C10.4258 12.7061 10.2379 11.9904 9.86224 11.3496C9.49995 10.6952 9.00349 10.1772 8.37284 9.79546C7.75561 9.4001 7.06458 9.20241 6.29976 9.20241C5.53493 9.20241 4.83719 9.4001 4.20655 9.79546C3.58932 10.1772 3.09285 10.6952 2.71715 11.3496C2.35486 11.9904 2.17372 12.7061 2.17372 13.4969C2.17372 14.2876 2.35486 15.0101 2.71715 15.6645C3.09285 16.3053 3.58932 16.8234 4.20655 17.2187C4.83719 17.6004 5.53493 17.7913 6.29976 17.7913Z" fill="white"/>
<path d="M6.01798 19.7954C4.9177 19.7954 3.91135 19.5159 2.99893 18.9569C2.0865 18.3844 1.35522 17.6209 0.805081 16.6666C0.26836 15.7123 0 14.6557 0 13.4969C0 12.338 0.26836 11.2815 0.805081 10.3272C1.35522 9.37283 2.0865 8.61619 2.99893 8.05723C3.91135 7.48464 4.9177 7.19834 6.01798 7.19834C6.8499 7.19834 7.62814 7.35512 8.35271 7.66868C9.0907 7.98225 9.72806 8.41851 10.2648 8.97747V7.36194H12.2775V19.6318H10.2648V18.0163C9.72806 18.5616 9.0907 18.9978 8.35271 19.325C7.62814 19.6386 6.8499 19.7954 6.01798 19.7954ZM6.29976 17.7913C7.06458 17.7913 7.75561 17.6004 8.37284 17.2187C9.00349 16.8234 9.49995 16.3053 9.86224 15.6645C10.2379 15.0101 10.4258 14.2876 10.4258 13.4969C10.4258 12.7061 10.2379 11.9904 9.86224 11.3496C9.49995 10.6952 9.00349 10.1772 8.37284 9.79546C7.75561 9.4001 7.06458 9.20241 6.29976 9.20241C5.53493 9.20241 4.83719 9.4001 4.20655 9.79546C3.58932 10.1772 3.09285 10.6952 2.71715 11.3496C2.35486 11.9904 2.17372 12.7061 2.17372 13.4969C2.17372 14.2876 2.35486 15.0101 2.71715 15.6645C3.09285 16.3053 3.58932 16.8234 4.20655 17.2187C4.83719 17.6004 5.53493 17.7913 6.29976 17.7913Z" fill="white"/>
</svg>
