<svg width="352" height="280" viewBox="0 0 352 280" fill="none" xmlns="http://www.w3.org/2000/svg">
<g clip-path="url(#clip0_78_15092)">
<rect width="352" height="280" rx="16" fill="url(#paint0_linear_78_15092)"/>
<g filter="url(#filter0_f_78_15092)">
<ellipse cx="22.5033" cy="45.5666" rx="22.5033" ry="45.5666" transform="matrix(0.937015 0.349289 -0.867134 0.498075 47.2383 -8.71606)" fill="#C7D7FF"/>
</g>
<path d="M258.3 83.05C258.1 82.59 257.793 82.23 257.38 81.97C256.973 81.7033 256.493 81.57 255.94 81.57C255.42 81.57 254.953 81.69 254.54 81.93C254.127 82.17 253.8 82.5133 253.56 82.96C253.32 83.4 253.2 83.9133 253.2 84.5C253.2 85.0867 253.32 85.6033 253.56 86.05C253.8 86.4967 254.127 86.84 254.54 87.08C254.953 87.32 255.42 87.44 255.94 87.44C256.427 87.44 256.863 87.3367 257.25 87.13C257.643 86.9167 257.957 86.6167 258.19 86.23C258.43 85.8367 258.567 85.38 258.6 84.86H255.66V84.29H259.34V84.8C259.307 85.4133 259.14 85.97 258.84 86.47C258.54 86.9633 258.137 87.3533 257.63 87.64C257.13 87.9267 256.567 88.07 255.94 88.07C255.293 88.07 254.707 87.92 254.18 87.62C253.653 87.3133 253.237 86.89 252.93 86.35C252.63 85.8033 252.48 85.1867 252.48 84.5C252.48 83.8133 252.63 83.2 252.93 82.66C253.237 82.1133 253.653 81.69 254.18 81.39C254.707 81.0833 255.293 80.93 255.94 80.93C256.687 80.93 257.34 81.1167 257.9 81.49C258.46 81.8633 258.867 82.3833 259.12 83.05H258.3ZM261.322 81.58V84.19H263.972V84.77H261.322V87.42H264.272V88H260.622V81H264.272V81.58H261.322ZM270.922 88H270.222L266.352 82.12V88H265.652V81.01H266.352L270.222 86.88V81.01H270.922V88ZM279.301 86.34H276.121L275.511 88H274.771L277.321 81.1H278.111L280.651 88H279.911L279.301 86.34ZM279.091 85.76L277.711 81.98L276.331 85.76H279.091ZM282.475 81.01V88H281.775V81.01H282.475ZM291.274 83.02C291.274 83.62 291.077 84.1033 290.684 84.47C290.291 84.8367 289.701 85.02 288.914 85.02H287.504V88H286.804V81.01H288.914C289.694 81.01 290.281 81.1933 290.674 81.56C291.074 81.9267 291.274 82.4133 291.274 83.02ZM288.914 84.42C290.007 84.42 290.554 83.9533 290.554 83.02C290.554 82.5533 290.424 82.2 290.164 81.96C289.904 81.72 289.487 81.6 288.914 81.6H287.504V84.42H288.914ZM294.838 88.08C294.325 88.08 293.862 87.9667 293.448 87.74C293.042 87.5067 292.718 87.18 292.478 86.76C292.245 86.3333 292.128 85.8367 292.128 85.27C292.128 84.7033 292.248 84.21 292.488 83.79C292.728 83.3633 293.055 83.0367 293.468 82.81C293.882 82.5767 294.345 82.46 294.858 82.46C295.372 82.46 295.835 82.5767 296.248 82.81C296.668 83.0367 296.995 83.3633 297.228 83.79C297.468 84.21 297.588 84.7033 297.588 85.27C297.588 85.83 297.468 86.3233 297.228 86.75C296.988 87.1767 296.658 87.5067 296.238 87.74C295.818 87.9667 295.352 88.08 294.838 88.08ZM294.838 87.47C295.198 87.47 295.532 87.39 295.838 87.23C296.145 87.0633 296.392 86.8167 296.578 86.49C296.772 86.1567 296.868 85.75 296.868 85.27C296.868 84.79 296.775 84.3867 296.588 84.06C296.402 83.7267 296.155 83.48 295.848 83.32C295.542 83.1533 295.208 83.07 294.848 83.07C294.488 83.07 294.155 83.1533 293.848 83.32C293.542 83.48 293.295 83.7267 293.108 84.06C292.928 84.3867 292.838 84.79 292.838 85.27C292.838 85.75 292.928 86.1567 293.108 86.49C293.295 86.8167 293.538 87.0633 293.838 87.23C294.145 87.39 294.478 87.47 294.838 87.47ZM306.064 82.54L304.354 88H303.654L302.144 83.42L300.634 88H299.924L298.214 82.54H298.924L300.284 87.29L301.814 82.54H302.514L304.024 87.3L305.374 82.54H306.064ZM311.959 84.99C311.959 85.23 311.952 85.4133 311.939 85.54H307.409C307.429 85.9533 307.529 86.3067 307.709 86.6C307.889 86.8933 308.125 87.1167 308.419 87.27C308.712 87.4167 309.032 87.49 309.379 87.49C309.832 87.49 310.212 87.38 310.519 87.16C310.832 86.94 311.039 86.6433 311.139 86.27H311.879C311.745 86.8033 311.459 87.24 311.019 87.58C310.585 87.9133 310.039 88.08 309.379 88.08C308.865 88.08 308.405 87.9667 307.999 87.74C307.592 87.5067 307.272 87.18 307.039 86.76C306.812 86.3333 306.699 85.8367 306.699 85.27C306.699 84.7033 306.812 84.2067 307.039 83.78C307.265 83.3533 307.582 83.0267 307.989 82.8C308.395 82.5733 308.859 82.46 309.379 82.46C309.899 82.46 310.352 82.5733 310.739 82.8C311.132 83.0267 311.432 83.3333 311.639 83.72C311.852 84.1 311.959 84.5233 311.959 84.99ZM311.249 84.97C311.255 84.5633 311.172 84.2167 310.999 83.93C310.832 83.6433 310.602 83.4267 310.309 83.28C310.015 83.1333 309.695 83.06 309.349 83.06C308.829 83.06 308.385 83.2267 308.019 83.56C307.652 83.8933 307.449 84.3633 307.409 84.97H311.249ZM313.939 83.51C314.093 83.17 314.326 82.9067 314.639 82.72C314.959 82.5333 315.349 82.44 315.809 82.44V83.17H315.619C315.113 83.17 314.706 83.3067 314.399 83.58C314.093 83.8533 313.939 84.31 313.939 84.95V88H313.239V82.54H313.939V83.51ZM321.803 84.99C321.803 85.23 321.796 85.4133 321.783 85.54H317.253C317.273 85.9533 317.373 86.3067 317.553 86.6C317.733 86.8933 317.969 87.1167 318.263 87.27C318.556 87.4167 318.876 87.49 319.223 87.49C319.676 87.49 320.056 87.38 320.363 87.16C320.676 86.94 320.883 86.6433 320.983 86.27H321.723C321.589 86.8033 321.303 87.24 320.863 87.58C320.429 87.9133 319.883 88.08 319.223 88.08C318.709 88.08 318.249 87.9667 317.843 87.74C317.436 87.5067 317.116 87.18 316.883 86.76C316.656 86.3333 316.543 85.8367 316.543 85.27C316.543 84.7033 316.656 84.2067 316.883 83.78C317.109 83.3533 317.426 83.0267 317.833 82.8C318.239 82.5733 318.703 82.46 319.223 82.46C319.743 82.46 320.196 82.5733 320.583 82.8C320.976 83.0267 321.276 83.3333 321.483 83.72C321.696 84.1 321.803 84.5233 321.803 84.99ZM321.093 84.97C321.099 84.5633 321.016 84.2167 320.843 83.93C320.676 83.6433 320.446 83.4267 320.153 83.28C319.859 83.1333 319.539 83.06 319.193 83.06C318.673 83.06 318.229 83.2267 317.863 83.56C317.496 83.8933 317.293 84.3633 317.253 84.97H321.093ZM322.763 85.26C322.763 84.7 322.877 84.21 323.103 83.79C323.33 83.3633 323.64 83.0367 324.033 82.81C324.433 82.5767 324.883 82.46 325.383 82.46C325.863 82.46 326.297 82.5767 326.683 82.81C327.07 83.0433 327.353 83.3467 327.533 83.72V80.6H328.233V88H327.533V86.78C327.367 87.16 327.093 87.4733 326.713 87.72C326.333 87.96 325.887 88.08 325.373 88.08C324.873 88.08 324.423 87.9633 324.023 87.73C323.63 87.4967 323.32 87.1667 323.093 86.74C322.873 86.3133 322.763 85.82 322.763 85.26ZM327.533 85.27C327.533 84.83 327.443 84.4433 327.263 84.11C327.083 83.7767 326.837 83.52 326.523 83.34C326.217 83.16 325.877 83.07 325.503 83.07C325.117 83.07 324.77 83.1567 324.463 83.33C324.157 83.5033 323.913 83.7567 323.733 84.09C323.56 84.4167 323.473 84.8067 323.473 85.26C323.473 85.7067 323.56 86.1 323.733 86.44C323.913 86.7733 324.157 87.03 324.463 87.21C324.77 87.3833 325.117 87.47 325.503 87.47C325.877 87.47 326.217 87.38 326.523 87.2C326.837 87.02 327.083 86.7633 327.263 86.43C327.443 86.0967 327.533 85.71 327.533 85.27Z" fill="url(#paint1_linear_78_15092)"/>
<g clip-path="url(#clip1_78_15092)">
<rect x="120" y="39" width="112" height="107" rx="16" fill="#788199" fill-opacity="0.21"/>
<g filter="url(#filter1_f_78_15092)">
<circle cx="176" cy="92" r="21" fill="#7687B5"/>
</g>
<path d="M166.501 111.841C167.298 111.841 168.033 111.749 168.86 111.688L170.638 115.058C170.974 115.732 171.649 116.099 172.475 115.977C173.241 115.824 173.793 115.272 173.884 114.445L174.436 110.737C175.938 110.34 177.439 109.757 178.909 109.114L181.668 111.596C182.25 112.148 182.984 112.269 183.75 111.841C184.425 111.473 184.701 110.737 184.548 109.941L183.782 106.266C185.08 105.359 186.3 104.345 187.428 103.233L190.859 104.671C191.625 104.978 192.33 104.825 192.912 104.121C193.433 103.569 193.494 102.773 193.065 102.098L191.074 98.9128C191.993 97.6252 192.729 96.2462 193.433 94.7756L197.172 94.9599C197.967 94.99 198.642 94.5613 198.917 93.7966C199.162 93.0293 198.917 92.2946 198.274 91.8044L195.363 89.4764C195.762 88.0058 196.069 86.4124 196.19 84.7575L199.745 83.6556C200.511 83.3798 201 82.7968 201 81.9693C201 81.1733 200.511 80.5916 199.745 80.3158L196.189 79.1825C196.068 77.5276 195.762 75.9956 195.363 74.495L198.273 72.1356C198.917 71.6767 199.162 70.9722 198.917 70.2062C198.642 69.4402 197.967 69.0101 197.171 69.0415L193.432 69.1944C192.729 67.7239 191.994 66.3448 191.074 65.0586L193.066 61.873C193.494 61.2286 193.432 60.4325 192.912 59.8809C192.33 59.1763 191.625 58.992 190.859 59.3293L187.428 60.7083C186.283 59.6241 185.064 58.6208 183.78 57.7058L184.548 54.0601C184.701 53.2327 184.425 52.498 183.75 52.1294C182.984 51.732 182.25 51.7935 181.668 52.4052L178.909 54.8261C177.456 54.1951 175.961 53.6628 174.436 53.2327L173.884 49.5255C173.793 48.7282 173.241 48.1478 172.475 48.0249C171.647 47.902 170.974 48.2393 170.637 48.9138L168.859 52.2837C168.033 52.2222 167.297 52.1608 166.501 52.1608C165.673 52.1608 164.938 52.2222 164.08 52.2837L162.334 48.9138C161.997 48.2393 161.322 47.902 160.465 48.0249C159.699 48.1478 159.177 48.7295 159.056 49.5255L158.534 53.2026C157.009 53.6461 155.515 54.1885 154.06 54.8261L151.303 52.4052C150.69 51.7935 149.956 51.732 149.22 52.1307C148.546 52.4967 148.271 53.2327 148.422 54.0601L149.19 57.7071C147.89 58.6132 146.66 59.6165 145.512 60.7083L142.112 59.3293C141.346 58.992 140.61 59.1763 140.028 59.8809C139.79 60.1452 139.646 60.4807 139.619 60.8353C139.591 61.1898 139.681 61.5436 139.875 61.8416L141.897 65.0599C140.978 66.3461 140.242 67.7265 139.538 69.1957L135.769 69.0428C134.971 69.0127 134.298 69.4415 134.054 70.2062C133.808 70.9735 134.022 71.678 134.666 72.1369L137.607 74.4963C137.21 75.9969 136.872 77.5289 136.781 79.1838L133.225 80.3171C132.43 80.5615 132 81.1445 132 81.972C132 82.7981 132.43 83.3811 133.226 83.6569L136.781 84.7902C136.872 86.4137 137.21 88.0058 137.608 89.4777L134.667 91.8044C134.022 92.2946 133.808 93.0306 134.052 93.7953C134.298 94.5613 134.973 94.99 135.769 94.9599L139.538 94.7769C140.244 96.2462 140.978 97.6266 141.866 98.9115L139.905 102.098C139.446 102.773 139.508 103.569 140.028 104.121C140.61 104.825 141.346 104.978 142.112 104.672L145.512 103.232C146.647 104.365 147.903 105.375 149.19 106.264L148.423 109.941C148.271 110.739 148.546 111.473 149.221 111.841C149.986 112.269 150.722 112.147 151.303 111.596L154.03 109.114C155.501 109.757 157.002 110.34 158.534 110.737L159.056 114.445C159.177 115.272 159.699 115.824 160.465 115.977C161.322 116.099 161.997 115.732 162.334 115.058L164.08 111.688C164.907 111.749 165.674 111.841 166.501 111.841ZM174.191 80.04C172.751 76.1799 169.932 74.0662 166.409 74.0662C165.888 74.0662 165.276 74.1277 164.295 74.3407L155.501 59.3293C158.78 57.7058 162.517 56.8169 166.501 56.8169C179.86 56.8169 190.338 66.9579 191.288 80.04H174.191ZM141.622 82.0007C141.622 73.4832 145.635 65.9775 151.978 61.4443L160.832 76.5472C159.177 78.2635 158.412 80.1315 158.412 82.1236C158.412 84.053 159.147 85.8307 160.832 87.6071L151.764 102.436C145.574 97.8697 141.622 90.4568 141.622 82.0007ZM162.732 82.0922C162.732 80.0099 164.51 78.3851 166.471 78.3851C168.553 78.3851 170.27 80.0099 170.27 82.0922C170.27 84.1445 168.553 85.8307 166.471 85.8307C164.51 85.8307 162.732 84.1445 162.732 82.0922ZM166.501 107.185C162.426 107.185 158.627 106.234 155.287 104.581L164.294 89.8437C165.244 90.0894 165.889 90.1496 166.409 90.1496C169.962 90.1496 172.782 87.9745 174.191 84.0229H191.287C190.306 97.0423 179.828 107.185 166.501 107.185Z" fill="url(#paint2_radial_78_15092)"/>
<g filter="url(#filter2_d_78_15092)">
<path d="M197.5 129.553C197.997 129.553 198.455 129.5 198.971 129.463L200.079 131.446C200.288 131.842 200.709 132.058 201.224 131.986C201.701 131.896 202.045 131.572 202.102 131.085L202.446 128.904C203.382 128.671 204.317 128.328 205.233 127.949L206.952 129.41C207.315 129.734 207.773 129.806 208.25 129.553C208.671 129.337 208.842 128.904 208.747 128.436L208.27 126.274C209.079 125.741 209.839 125.144 210.542 124.49L212.68 125.336C213.158 125.516 213.597 125.427 213.96 125.012C214.285 124.688 214.322 124.219 214.055 123.823L212.814 121.949C213.387 121.191 213.845 120.38 214.285 119.515L216.615 119.623C217.11 119.641 217.53 119.389 217.702 118.939C217.855 118.488 217.702 118.056 217.301 117.767L215.487 116.398C215.736 115.533 215.927 114.596 216.003 113.622L218.218 112.974C218.695 112.812 219 112.469 219 111.982C219 111.514 218.695 111.172 218.218 111.009L216.002 110.343C215.926 109.369 215.736 108.468 215.487 107.585L217.301 106.197C217.702 105.927 217.855 105.513 217.702 105.062C217.53 104.612 217.11 104.359 216.614 104.377L214.284 104.467C213.845 103.602 213.388 102.791 212.814 102.034L214.056 100.161C214.322 99.7815 214.284 99.3132 213.96 98.9888C213.597 98.5743 213.158 98.4659 212.68 98.6643L210.542 99.4755C209.829 98.8377 209.069 98.2475 208.269 97.7093L208.747 95.5648C208.842 95.078 208.671 94.6459 208.25 94.4291C207.773 94.1953 207.315 94.2314 206.952 94.5913L205.233 96.0153C204.327 95.6442 203.396 95.331 202.446 95.078L202.102 92.8974C202.045 92.4283 201.701 92.0869 201.224 92.0147C200.708 91.9424 200.288 92.1408 200.078 92.5375L198.97 94.5198C198.455 94.4837 197.997 94.4475 197.5 94.4475C196.985 94.4475 196.527 94.4837 195.992 94.5198L194.904 92.5375C194.694 92.1408 194.273 91.9424 193.739 92.0147C193.262 92.0869 192.937 92.4291 192.861 92.8974L192.536 95.0603C191.585 95.3213 190.654 95.6403 189.748 96.0153L188.03 94.5913C187.648 94.2314 187.19 94.1953 186.731 94.4298C186.311 94.6451 186.14 95.078 186.234 95.5648L186.712 97.71C185.902 98.2431 185.136 98.8332 184.421 99.4755L182.302 98.6643C181.824 98.4659 181.366 98.5743 181.003 98.9888C180.855 99.1443 180.765 99.3416 180.748 99.5502C180.731 99.7587 180.787 99.9668 180.908 100.142L182.168 102.035C181.595 102.792 181.137 103.604 180.697 104.468L178.349 104.378C177.852 104.36 177.432 104.613 177.28 105.062C177.127 105.514 177.26 105.928 177.661 106.198L179.494 107.586C179.247 108.469 179.036 109.37 178.979 110.343L176.763 111.01C176.268 111.154 176 111.497 176 111.984C176 112.469 176.268 112.812 176.764 112.975L178.979 113.641C179.036 114.596 179.247 115.533 179.495 116.399L177.662 117.767C177.26 118.056 177.127 118.489 177.279 118.938C177.432 119.389 177.853 119.641 178.349 119.623L180.697 119.516C181.137 120.38 181.595 121.192 182.148 121.948L180.926 123.823C180.64 124.219 180.679 124.688 181.003 125.012C181.366 125.427 181.824 125.516 182.302 125.337L184.421 124.489C185.128 125.156 185.911 125.75 186.712 126.273L186.235 128.436C186.14 128.905 186.311 129.337 186.732 129.553C187.208 129.806 187.667 129.733 188.03 129.41L189.729 127.949C190.646 128.328 191.581 128.671 192.536 128.904L192.861 131.085C192.937 131.572 193.262 131.896 193.739 131.986C194.273 132.058 194.694 131.842 194.904 131.446L195.992 129.463C196.507 129.5 196.986 129.553 197.5 129.553ZM202.293 110.847C201.395 108.576 199.639 107.333 197.443 107.333C197.118 107.333 196.737 107.369 196.126 107.495L190.646 98.6643C192.689 97.7093 195.018 97.1864 197.5 97.1864C205.826 97.1864 212.355 103.152 212.948 110.847H202.293ZM181.996 112C181.996 106.99 184.497 102.575 188.45 99.9084L193.968 108.792C192.937 109.802 192.46 110.901 192.46 112.073C192.46 113.208 192.918 114.253 193.968 115.298L188.316 124.021C184.459 121.335 181.996 116.975 181.996 112ZM195.152 112.054C195.152 110.829 196.26 109.874 197.482 109.874C198.779 109.874 199.849 110.829 199.849 112.054C199.849 113.261 198.779 114.253 197.482 114.253C196.26 114.253 195.152 113.261 195.152 112.054ZM197.5 126.814C194.961 126.814 192.594 126.255 190.512 125.283L196.125 116.614C196.717 116.758 197.119 116.794 197.443 116.794C199.658 116.794 201.415 115.514 202.293 113.19H212.947C212.336 120.848 205.806 126.814 197.5 126.814Z" fill="url(#paint3_radial_78_15092)"/>
</g>
</g>
<rect x="120.5" y="39.5" width="111" height="106" rx="15.5" stroke="black"/>
<rect x="120.5" y="39.5" width="111" height="106" rx="15.5" stroke="url(#paint4_linear_78_15092)"/>
<g style="mix-blend-mode:plus-lighter" filter="url(#filter3_f_78_15092)">
<path d="M172.649 3H185.315L275 264H78L172.649 3Z" fill="#263048"/>
</g>
<g style="mix-blend-mode:plus-lighter" filter="url(#filter4_f_78_15092)">
<path d="M177.392 0H187.614L260 280H101L177.392 0Z" fill="#0C0C0C"/>
</g>
<rect x="112.5" y="31.5" width="127" height="122" rx="20.5" stroke="url(#paint5_linear_78_15092)"/>
<g style="mix-blend-mode:plus-lighter" filter="url(#filter5_d_78_15092)">
<path d="M352 96H232" stroke="white"/>
</g>
</g>
<rect x="0.5" y="0.5" width="351" height="279" rx="15.5" stroke="url(#paint6_linear_78_15092)"/>
<defs>
<filter id="filter0_f_78_15092" x="-155.183" y="-141.385" width="367.991" height="326.449" filterUnits="userSpaceOnUse" color-interpolation-filters="sRGB">
<feFlood flood-opacity="0" result="BackgroundImageFix"/>
<feBlend mode="normal" in="SourceGraphic" in2="BackgroundImageFix" result="shape"/>
<feGaussianBlur stdDeviation="69.6" result="effect1_foregroundBlur_78_15092"/>
</filter>
<filter id="filter1_f_78_15092" x="112.9" y="28.9" width="126.2" height="126.2" filterUnits="userSpaceOnUse" color-interpolation-filters="sRGB">
<feFlood flood-opacity="0" result="BackgroundImageFix"/>
<feBlend mode="normal" in="SourceGraphic" in2="BackgroundImageFix" result="shape"/>
<feGaussianBlur stdDeviation="21.05" result="effect1_foregroundBlur_78_15092"/>
</filter>
<filter id="filter2_d_78_15092" x="170" y="87" width="51" height="48" filterUnits="userSpaceOnUse" color-interpolation-filters="sRGB">
<feFlood flood-opacity="0" result="BackgroundImageFix"/>
<feColorMatrix in="SourceAlpha" type="matrix" values="0 0 0 0 0 0 0 0 0 0 0 0 0 0 0 0 0 0 127 0" result="hardAlpha"/>
<feOffset dx="-2" dy="-1"/>
<feGaussianBlur stdDeviation="2"/>
<feComposite in2="hardAlpha" operator="out"/>
<feColorMatrix type="matrix" values="0 0 0 0 0 0 0 0 0 0 0 0 0 0 0 0 0 0 0.25 0"/>
<feBlend mode="normal" in2="BackgroundImageFix" result="effect1_dropShadow_78_15092"/>
<feBlend mode="normal" in="SourceGraphic" in2="effect1_dropShadow_78_15092" result="shape"/>
</filter>
<filter id="filter3_f_78_15092" x="-89.7" y="-164.7" width="532.4" height="596.4" filterUnits="userSpaceOnUse" color-interpolation-filters="sRGB">
<feFlood flood-opacity="0" result="BackgroundImageFix"/>
<feBlend mode="normal" in="SourceGraphic" in2="BackgroundImageFix" result="shape"/>
<feGaussianBlur stdDeviation="83.85" result="effect1_foregroundBlur_78_15092"/>
</filter>
<filter id="filter4_f_78_15092" x="53.8" y="-47.2" width="253.4" height="374.4" filterUnits="userSpaceOnUse" color-interpolation-filters="sRGB">
<feFlood flood-opacity="0" result="BackgroundImageFix"/>
<feBlend mode="normal" in="SourceGraphic" in2="BackgroundImageFix" result="shape"/>
<feGaussianBlur stdDeviation="23.6" result="effect1_foregroundBlur_78_15092"/>
</filter>
<filter id="filter5_d_78_15092" x="228" y="91.5" width="128" height="9" filterUnits="userSpaceOnUse" color-interpolation-filters="sRGB">
<feFlood flood-opacity="0" result="BackgroundImageFix"/>
<feColorMatrix in="SourceAlpha" type="matrix" values="0 0 0 0 0 0 0 0 0 0 0 0 0 0 0 0 0 0 127 0" result="hardAlpha"/>
<feOffset/>
<feGaussianBlur stdDeviation="2"/>
<feComposite in2="hardAlpha" operator="out"/>
<feColorMatrix type="matrix" values="0 0 0 0 1 0 0 0 0 1 0 0 0 0 1 0 0 0 1 0"/>
<feBlend mode="normal" in2="BackgroundImageFix" result="effect1_dropShadow_78_15092"/>
<feBlend mode="normal" in="SourceGraphic" in2="effect1_dropShadow_78_15092" result="shape"/>
</filter>
<linearGradient id="paint0_linear_78_15092" x1="-34.7291" y1="31.323" x2="71.1429" y2="363.959" gradientUnits="userSpaceOnUse">
<stop stop-color="#0B0B0B"/>
<stop offset="1" stop-color="#1D2333"/>
</linearGradient>
<linearGradient id="paint1_linear_78_15092" x1="252" y1="84.5" x2="330" y2="84.5" gradientUnits="userSpaceOnUse">
<stop stop-color="white"/>
<stop offset="1" stop-color="#5C73AE"/>
</linearGradient>
<radialGradient id="paint2_radial_78_15092" cx="0" cy="0" r="1" gradientUnits="userSpaceOnUse" gradientTransform="translate(166.5 82) rotate(89.7298) scale(37.0475 37.5918)">
<stop stop-color="#C7D7FF"/>
<stop offset="1" stop-color="#788199"/>
</radialGradient>
<radialGradient id="paint3_radial_78_15092" cx="0" cy="0" r="1" gradientUnits="userSpaceOnUse" gradientTransform="translate(197.5 112) rotate(89.7138) scale(21.7927 23.4267)">
<stop stop-color="#C7D7FF"/>
<stop offset="1" stop-color="#788199"/>
</radialGradient>
<linearGradient id="paint4_linear_78_15092" x1="232" y1="92.5" x2="120" y2="92.5" gradientUnits="userSpaceOnUse">
<stop stop-color="#7687B5"/>
<stop offset="1" stop-color="#333B4F"/>
</linearGradient>
<linearGradient id="paint5_linear_78_15092" x1="240" y1="92.5" x2="112" y2="92.5" gradientUnits="userSpaceOnUse">
<stop stop-color="#7687B5"/>
<stop offset="1" stop-color="#333B4F"/>
</linearGradient>
<linearGradient id="paint6_linear_78_15092" x1="352" y1="140" x2="0" y2="140" gradientUnits="userSpaceOnUse">
<stop stop-color="#7687B5"/>
<stop offset="1" stop-color="#333B4F"/>
</linearGradient>
<clipPath id="clip0_78_15092">
<rect width="352" height="280" rx="16" fill="white"/>
</clipPath>
<clipPath id="clip1_78_15092">
<rect x="120" y="39" width="112" height="107" rx="16" fill="white"/>
</clipPath>
</defs>
</svg>
