<svg width="352" height="280" viewBox="0 0 352 280" fill="none" xmlns="http://www.w3.org/2000/svg">
<g clip-path="url(#clip0_78_15120)">
<rect width="352" height="280" rx="16" fill="url(#paint0_linear_78_15120)"/>
<g filter="url(#filter0_f_78_15120)">
<ellipse cx="22.5033" cy="45.5666" rx="22.5033" ry="45.5666" transform="matrix(0.937015 0.349289 -0.867134 0.498075 47.2383 -8.71606)" fill="#C7D7FF"/>
</g>
<path d="M258.3 83.05C258.1 82.59 257.793 82.23 257.38 81.97C256.973 81.7033 256.493 81.57 255.94 81.57C255.42 81.57 254.953 81.69 254.54 81.93C254.127 82.17 253.8 82.5133 253.56 82.96C253.32 83.4 253.2 83.9133 253.2 84.5C253.2 85.0867 253.32 85.6033 253.56 86.05C253.8 86.4967 254.127 86.84 254.54 87.08C254.953 87.32 255.42 87.44 255.94 87.44C256.427 87.44 256.863 87.3367 257.25 87.13C257.643 86.9167 257.957 86.6167 258.19 86.23C258.43 85.8367 258.567 85.38 258.6 84.86H255.66V84.29H259.34V84.8C259.307 85.4133 259.14 85.97 258.84 86.47C258.54 86.9633 258.137 87.3533 257.63 87.64C257.13 87.9267 256.567 88.07 255.94 88.07C255.293 88.07 254.707 87.92 254.18 87.62C253.653 87.3133 253.237 86.89 252.93 86.35C252.63 85.8033 252.48 85.1867 252.48 84.5C252.48 83.8133 252.63 83.2 252.93 82.66C253.237 82.1133 253.653 81.69 254.18 81.39C254.707 81.0833 255.293 80.93 255.94 80.93C256.687 80.93 257.34 81.1167 257.9 81.49C258.46 81.8633 258.867 82.3833 259.12 83.05H258.3ZM261.322 81.58V84.19H263.972V84.77H261.322V87.42H264.272V88H260.622V81H264.272V81.58H261.322ZM270.922 88H270.222L266.352 82.12V88H265.652V81.01H266.352L270.222 86.88V81.01H270.922V88ZM279.301 86.34H276.121L275.511 88H274.771L277.321 81.1H278.111L280.651 88H279.911L279.301 86.34ZM279.091 85.76L277.711 81.98L276.331 85.76H279.091ZM282.475 81.01V88H281.775V81.01H282.475ZM291.274 83.02C291.274 83.62 291.077 84.1033 290.684 84.47C290.291 84.8367 289.701 85.02 288.914 85.02H287.504V88H286.804V81.01H288.914C289.694 81.01 290.281 81.1933 290.674 81.56C291.074 81.9267 291.274 82.4133 291.274 83.02ZM288.914 84.42C290.007 84.42 290.554 83.9533 290.554 83.02C290.554 82.5533 290.424 82.2 290.164 81.96C289.904 81.72 289.487 81.6 288.914 81.6H287.504V84.42H288.914ZM294.838 88.08C294.325 88.08 293.862 87.9667 293.448 87.74C293.042 87.5067 292.718 87.18 292.478 86.76C292.245 86.3333 292.128 85.8367 292.128 85.27C292.128 84.7033 292.248 84.21 292.488 83.79C292.728 83.3633 293.055 83.0367 293.468 82.81C293.882 82.5767 294.345 82.46 294.858 82.46C295.372 82.46 295.835 82.5767 296.248 82.81C296.668 83.0367 296.995 83.3633 297.228 83.79C297.468 84.21 297.588 84.7033 297.588 85.27C297.588 85.83 297.468 86.3233 297.228 86.75C296.988 87.1767 296.658 87.5067 296.238 87.74C295.818 87.9667 295.352 88.08 294.838 88.08ZM294.838 87.47C295.198 87.47 295.532 87.39 295.838 87.23C296.145 87.0633 296.392 86.8167 296.578 86.49C296.772 86.1567 296.868 85.75 296.868 85.27C296.868 84.79 296.775 84.3867 296.588 84.06C296.402 83.7267 296.155 83.48 295.848 83.32C295.542 83.1533 295.208 83.07 294.848 83.07C294.488 83.07 294.155 83.1533 293.848 83.32C293.542 83.48 293.295 83.7267 293.108 84.06C292.928 84.3867 292.838 84.79 292.838 85.27C292.838 85.75 292.928 86.1567 293.108 86.49C293.295 86.8167 293.538 87.0633 293.838 87.23C294.145 87.39 294.478 87.47 294.838 87.47ZM306.064 82.54L304.354 88H303.654L302.144 83.42L300.634 88H299.924L298.214 82.54H298.924L300.284 87.29L301.814 82.54H302.514L304.024 87.3L305.374 82.54H306.064ZM311.959 84.99C311.959 85.23 311.952 85.4133 311.939 85.54H307.409C307.429 85.9533 307.529 86.3067 307.709 86.6C307.889 86.8933 308.125 87.1167 308.419 87.27C308.712 87.4167 309.032 87.49 309.379 87.49C309.832 87.49 310.212 87.38 310.519 87.16C310.832 86.94 311.039 86.6433 311.139 86.27H311.879C311.745 86.8033 311.459 87.24 311.019 87.58C310.585 87.9133 310.039 88.08 309.379 88.08C308.865 88.08 308.405 87.9667 307.999 87.74C307.592 87.5067 307.272 87.18 307.039 86.76C306.812 86.3333 306.699 85.8367 306.699 85.27C306.699 84.7033 306.812 84.2067 307.039 83.78C307.265 83.3533 307.582 83.0267 307.989 82.8C308.395 82.5733 308.859 82.46 309.379 82.46C309.899 82.46 310.352 82.5733 310.739 82.8C311.132 83.0267 311.432 83.3333 311.639 83.72C311.852 84.1 311.959 84.5233 311.959 84.99ZM311.249 84.97C311.255 84.5633 311.172 84.2167 310.999 83.93C310.832 83.6433 310.602 83.4267 310.309 83.28C310.015 83.1333 309.695 83.06 309.349 83.06C308.829 83.06 308.385 83.2267 308.019 83.56C307.652 83.8933 307.449 84.3633 307.409 84.97H311.249ZM313.939 83.51C314.093 83.17 314.326 82.9067 314.639 82.72C314.959 82.5333 315.349 82.44 315.809 82.44V83.17H315.619C315.113 83.17 314.706 83.3067 314.399 83.58C314.093 83.8533 313.939 84.31 313.939 84.95V88H313.239V82.54H313.939V83.51ZM321.803 84.99C321.803 85.23 321.796 85.4133 321.783 85.54H317.253C317.273 85.9533 317.373 86.3067 317.553 86.6C317.733 86.8933 317.969 87.1167 318.263 87.27C318.556 87.4167 318.876 87.49 319.223 87.49C319.676 87.49 320.056 87.38 320.363 87.16C320.676 86.94 320.883 86.6433 320.983 86.27H321.723C321.589 86.8033 321.303 87.24 320.863 87.58C320.429 87.9133 319.883 88.08 319.223 88.08C318.709 88.08 318.249 87.9667 317.843 87.74C317.436 87.5067 317.116 87.18 316.883 86.76C316.656 86.3333 316.543 85.8367 316.543 85.27C316.543 84.7033 316.656 84.2067 316.883 83.78C317.109 83.3533 317.426 83.0267 317.833 82.8C318.239 82.5733 318.703 82.46 319.223 82.46C319.743 82.46 320.196 82.5733 320.583 82.8C320.976 83.0267 321.276 83.3333 321.483 83.72C321.696 84.1 321.803 84.5233 321.803 84.99ZM321.093 84.97C321.099 84.5633 321.016 84.2167 320.843 83.93C320.676 83.6433 320.446 83.4267 320.153 83.28C319.859 83.1333 319.539 83.06 319.193 83.06C318.673 83.06 318.229 83.2267 317.863 83.56C317.496 83.8933 317.293 84.3633 317.253 84.97H321.093ZM322.763 85.26C322.763 84.7 322.877 84.21 323.103 83.79C323.33 83.3633 323.64 83.0367 324.033 82.81C324.433 82.5767 324.883 82.46 325.383 82.46C325.863 82.46 326.297 82.5767 326.683 82.81C327.07 83.0433 327.353 83.3467 327.533 83.72V80.6H328.233V88H327.533V86.78C327.367 87.16 327.093 87.4733 326.713 87.72C326.333 87.96 325.887 88.08 325.373 88.08C324.873 88.08 324.423 87.9633 324.023 87.73C323.63 87.4967 323.32 87.1667 323.093 86.74C322.873 86.3133 322.763 85.82 322.763 85.26ZM327.533 85.27C327.533 84.83 327.443 84.4433 327.263 84.11C327.083 83.7767 326.837 83.52 326.523 83.34C326.217 83.16 325.877 83.07 325.503 83.07C325.117 83.07 324.77 83.1567 324.463 83.33C324.157 83.5033 323.913 83.7567 323.733 84.09C323.56 84.4167 323.473 84.8067 323.473 85.26C323.473 85.7067 323.56 86.1 323.733 86.44C323.913 86.7733 324.157 87.03 324.463 87.21C324.77 87.3833 325.117 87.47 325.503 87.47C325.877 87.47 326.217 87.38 326.523 87.2C326.837 87.02 327.083 86.7633 327.263 86.43C327.443 86.0967 327.533 85.71 327.533 85.27Z" fill="url(#paint1_linear_78_15120)"/>
<g clip-path="url(#clip1_78_15120)">
<rect x="120" y="39" width="112" height="107" rx="16" fill="#788199" fill-opacity="0.21"/>
<g filter="url(#filter1_f_78_15120)">
<circle cx="176" cy="92" r="21" fill="#7687B5"/>
</g>
<path d="M167.499 52.1593C166.702 52.1593 165.967 52.2508 165.14 52.3123L163.362 48.9424C163.026 48.2679 162.351 47.9006 161.525 48.0235C160.759 48.1764 160.207 48.728 160.116 49.5555L159.564 53.2626C158.062 53.66 156.561 54.243 155.091 54.8861L152.332 52.4038C151.75 51.8522 151.016 51.7306 150.25 52.1593C149.575 52.5267 149.299 53.2626 149.452 54.0587L150.218 57.7344C148.92 58.6408 147.7 59.6552 146.572 60.767L143.141 59.3291C142.375 59.022 141.67 59.1749 141.088 59.8795C140.567 60.4311 140.506 61.2271 140.935 61.9016L142.926 65.0872C142.007 66.3748 141.271 67.7538 140.567 69.2244L136.828 69.0401C136.033 69.01 135.358 69.4387 135.083 70.2034C134.838 70.9707 135.083 71.7054 135.726 72.1956L138.637 74.5236C138.238 75.9942 137.931 77.5876 137.81 79.2425L134.255 80.3444C133.489 80.6202 133 81.2032 133 82.0307C133 82.8267 133.489 83.4084 134.255 83.6842L137.811 84.8175C137.932 86.4724 138.238 88.0044 138.637 89.505L135.727 91.8644C135.083 92.3233 134.838 93.0278 135.083 93.7938C135.358 94.5598 136.033 94.9899 136.829 94.9585L140.568 94.8056C141.271 96.2761 142.006 97.6552 142.926 98.9414L140.934 102.127C140.506 102.771 140.568 103.567 141.088 104.119C141.67 104.824 142.375 105.008 143.141 104.671L146.572 103.292C147.717 104.376 148.936 105.379 150.22 106.294L149.452 109.94C149.299 110.767 149.575 111.502 150.25 111.871C151.016 112.268 151.75 112.207 152.332 111.595L155.091 109.174C156.544 109.805 158.039 110.337 159.564 110.767L160.116 114.474C160.207 115.272 160.759 115.852 161.525 115.975C162.353 116.098 163.026 115.761 163.363 115.086L165.141 111.716C165.967 111.778 166.703 111.839 167.499 111.839C168.327 111.839 169.062 111.778 169.92 111.716L171.666 115.086C172.003 115.761 172.678 116.098 173.535 115.975C174.301 115.852 174.823 115.271 174.944 114.474L175.466 110.797C176.991 110.354 178.485 109.812 179.94 109.174L182.697 111.595C183.31 112.207 184.044 112.268 184.78 111.869C185.454 111.503 185.729 110.767 185.578 109.94L184.81 106.293C186.11 105.387 187.34 104.384 188.488 103.292L191.888 104.671C192.654 105.008 193.39 104.824 193.972 104.119C194.21 103.855 194.354 103.519 194.381 103.165C194.409 102.81 194.319 102.456 194.125 102.158L192.103 98.9401C193.022 97.6539 193.758 96.2735 194.462 94.8043L198.231 94.9572C199.029 94.9873 199.702 94.5585 199.946 93.7938C200.192 93.0265 199.978 92.322 199.334 91.8631L196.393 89.5037C196.79 88.0031 197.128 86.4711 197.219 84.8162L200.775 83.6829C201.57 83.4385 202 82.8555 202 82.028C202 81.2019 201.57 80.6189 200.774 80.3431L197.219 79.2098C197.128 77.5863 196.79 75.9942 196.392 74.5223L199.333 72.1956C199.978 71.7054 200.192 70.9694 199.948 70.2047C199.702 69.4387 199.027 69.01 198.231 69.0401L194.462 69.2231C193.756 67.7538 193.022 66.3734 192.134 65.0885L194.095 61.9016C194.554 61.2271 194.492 60.4311 193.972 59.8795C193.39 59.1749 192.654 59.022 191.888 59.3278L188.488 60.7683C187.353 59.635 186.097 58.6246 184.81 57.7357L185.577 54.0587C185.729 53.2613 185.454 52.5267 184.779 52.1593C184.014 51.7306 183.278 51.8535 182.697 52.4038L179.97 54.8861C178.499 54.243 176.998 53.66 175.466 53.2626L174.944 49.5555C174.823 48.728 174.301 48.1764 173.535 48.0235C172.678 47.9006 172.003 48.2679 171.666 48.9424L169.92 52.3123C169.093 52.2508 168.326 52.1593 167.499 52.1593ZM159.809 83.96C161.249 87.8201 164.068 89.9338 167.591 89.9338C168.112 89.9338 168.724 89.8723 169.705 89.6593L178.499 104.671C175.22 106.294 171.483 107.183 167.499 107.183C154.14 107.183 143.662 97.0421 142.712 83.96H159.809ZM192.378 81.9993C192.378 90.5168 188.365 98.0225 182.022 102.556L173.168 87.4528C174.823 85.7365 175.588 83.8685 175.588 81.8764C175.588 79.947 174.853 78.1693 173.168 76.3929L182.236 61.5644C188.426 66.1303 192.378 73.5432 192.378 81.9993ZM171.268 81.9078C171.268 83.9901 169.49 85.6149 167.529 85.6149C165.447 85.6149 163.73 83.9901 163.73 81.9078C163.73 79.8555 165.447 78.1693 167.529 78.1693C169.49 78.1693 171.268 79.8555 171.268 81.9078ZM167.499 56.8155C171.574 56.8155 175.373 57.7658 178.713 59.4193L169.706 74.1563C168.756 73.9106 168.111 73.8504 167.591 73.8504C164.038 73.8504 161.218 76.0255 159.809 79.9771H142.713C143.694 66.9577 154.172 56.8155 167.499 56.8155Z" fill="url(#paint2_radial_78_15120)"/>
<g filter="url(#filter2_d_78_15120)">
<path d="M198.5 94.4467C198.003 94.4467 197.545 94.5005 197.029 94.5366L195.921 92.5544C195.712 92.1576 195.291 91.9415 194.776 92.0138C194.299 92.1038 193.955 92.4283 193.898 92.915L193.554 95.0956C192.618 95.3294 191.683 95.6723 190.767 96.0506L189.048 94.5905C188.685 94.266 188.227 94.1945 187.75 94.4467C187.329 94.6627 187.158 95.0956 187.253 95.5639L187.73 97.7261C186.921 98.2593 186.161 98.856 185.458 99.51L183.32 98.6642C182.842 98.4835 182.403 98.5735 182.04 98.9879C181.715 99.3124 181.678 99.7807 181.945 100.177L183.186 102.051C182.613 102.809 182.155 103.62 181.715 104.485L179.385 104.377C178.89 104.359 178.47 104.611 178.298 105.061C178.145 105.512 178.298 105.944 178.699 106.233L180.513 107.602C180.264 108.467 180.073 109.404 179.997 110.378L177.782 111.026C177.305 111.188 177 111.531 177 112.018C177 112.486 177.305 112.828 177.782 112.991L179.998 113.657C180.074 114.631 180.264 115.532 180.513 116.415L178.699 117.803C178.298 118.073 178.145 118.487 178.298 118.938C178.47 119.388 178.89 119.641 179.386 119.623L181.716 119.533C182.155 120.398 182.612 121.209 183.186 121.966L181.944 123.839C181.678 124.218 181.716 124.687 182.04 125.011C182.403 125.426 182.842 125.534 183.32 125.336L185.458 124.525C186.171 125.162 186.931 125.752 187.731 126.291L187.253 128.435C187.158 128.922 187.329 129.354 187.75 129.571C188.227 129.805 188.685 129.769 189.048 129.409L190.767 127.985C191.673 128.356 192.604 128.669 193.554 128.922L193.898 131.103C193.955 131.572 194.299 131.913 194.776 131.985C195.292 132.058 195.712 131.859 195.922 131.462L197.03 129.48C197.545 129.516 198.003 129.552 198.5 129.552C199.015 129.552 199.473 129.516 200.008 129.48L201.096 131.462C201.306 131.859 201.727 132.058 202.261 131.985C202.738 131.913 203.063 131.571 203.139 131.103L203.464 128.94C204.415 128.679 205.346 128.36 206.252 127.985L207.97 129.409C208.352 129.769 208.81 129.805 209.269 129.57C209.689 129.355 209.86 128.922 209.766 128.435L209.288 126.29C210.098 125.757 210.864 125.167 211.579 124.525L213.698 125.336C214.176 125.534 214.634 125.426 214.997 125.011C215.145 124.856 215.235 124.658 215.252 124.45C215.269 124.241 215.213 124.033 215.092 123.858L213.832 121.965C214.405 121.208 214.863 120.396 215.303 119.532L217.651 119.622C218.148 119.64 218.568 119.387 218.72 118.938C218.873 118.486 218.74 118.072 218.339 117.802L216.506 116.414C216.753 115.531 216.964 114.63 217.021 113.657L219.237 112.99C219.732 112.846 220 112.503 220 112.016C220 111.531 219.732 111.188 219.236 111.025L217.021 110.359C216.964 109.404 216.753 108.467 216.505 107.601L218.338 106.233C218.74 105.944 218.873 105.511 218.721 105.062C218.568 104.611 218.147 104.359 217.651 104.377L215.303 104.484C214.863 103.62 214.405 102.808 213.852 102.052L215.074 100.177C215.36 99.7807 215.321 99.3124 214.997 98.9879C214.634 98.5735 214.176 98.4835 213.698 98.6634L211.579 99.5108C210.872 98.8441 210.089 98.2498 209.288 97.7269L209.765 95.5639C209.86 95.0949 209.689 94.6627 209.268 94.4467C208.792 94.1945 208.333 94.2667 207.97 94.5905L206.271 96.0506C205.354 95.6723 204.419 95.3294 203.464 95.0956L203.139 92.915C203.063 92.4283 202.738 92.1038 202.261 92.0138C201.727 91.9415 201.306 92.1576 201.096 92.5544L200.008 94.5366C199.493 94.5005 199.014 94.4467 198.5 94.4467ZM193.707 113.153C194.605 115.424 196.361 116.667 198.557 116.667C198.882 116.667 199.263 116.631 199.874 116.505L205.354 125.336C203.311 126.291 200.982 126.814 198.5 126.814C190.174 126.814 183.645 120.848 183.052 113.153H193.707ZM214.004 112C214.004 117.01 211.503 121.425 207.55 124.092L202.032 115.208C203.063 114.198 203.54 113.099 203.54 111.927C203.54 110.792 203.082 109.747 202.032 108.702L207.684 99.9791C211.541 102.665 214.004 107.025 214.004 112ZM200.848 111.946C200.848 113.171 199.74 114.126 198.518 114.126C197.221 114.126 196.151 113.171 196.151 111.946C196.151 110.739 197.221 109.747 198.518 109.747C199.74 109.747 200.848 110.739 200.848 111.946ZM198.5 97.1856C201.039 97.1856 203.406 97.7446 205.488 98.7173L199.875 107.386C199.283 107.242 198.881 107.206 198.557 107.206C196.342 107.206 194.585 108.486 193.707 110.81H183.053C183.664 103.152 190.194 97.1856 198.5 97.1856Z" fill="url(#paint3_radial_78_15120)"/>
</g>
</g>
<rect x="120.5" y="39.5" width="111" height="106" rx="15.5" stroke="black"/>
<rect x="120.5" y="39.5" width="111" height="106" rx="15.5" stroke="url(#paint4_linear_78_15120)"/>
<g style="mix-blend-mode:plus-lighter" filter="url(#filter3_f_78_15120)">
<path d="M172.649 3H185.315L275 264H78L172.649 3Z" fill="#263048"/>
</g>
<g style="mix-blend-mode:plus-lighter" filter="url(#filter4_f_78_15120)">
<path d="M177.392 0H187.614L260 280H101L177.392 0Z" fill="#0C0C0C"/>
</g>
<rect x="112.5" y="31.5" width="127" height="122" rx="20.5" stroke="url(#paint5_linear_78_15120)"/>
<g style="mix-blend-mode:plus-lighter" filter="url(#filter5_d_78_15120)">
<path d="M352 96H232" stroke="white"/>
</g>
</g>
<rect x="0.5" y="0.5" width="351" height="279" rx="15.5" stroke="url(#paint6_linear_78_15120)"/>
<defs>
<filter id="filter0_f_78_15120" x="-155.183" y="-141.385" width="367.991" height="326.449" filterUnits="userSpaceOnUse" color-interpolation-filters="sRGB">
<feFlood flood-opacity="0" result="BackgroundImageFix"/>
<feBlend mode="normal" in="SourceGraphic" in2="BackgroundImageFix" result="shape"/>
<feGaussianBlur stdDeviation="69.6" result="effect1_foregroundBlur_78_15120"/>
</filter>
<filter id="filter1_f_78_15120" x="112.9" y="28.9" width="126.2" height="126.2" filterUnits="userSpaceOnUse" color-interpolation-filters="sRGB">
<feFlood flood-opacity="0" result="BackgroundImageFix"/>
<feBlend mode="normal" in="SourceGraphic" in2="BackgroundImageFix" result="shape"/>
<feGaussianBlur stdDeviation="21.05" result="effect1_foregroundBlur_78_15120"/>
</filter>
<filter id="filter2_d_78_15120" x="171" y="87" width="51" height="48" filterUnits="userSpaceOnUse" color-interpolation-filters="sRGB">
<feFlood flood-opacity="0" result="BackgroundImageFix"/>
<feColorMatrix in="SourceAlpha" type="matrix" values="0 0 0 0 0 0 0 0 0 0 0 0 0 0 0 0 0 0 127 0" result="hardAlpha"/>
<feOffset dx="-2" dy="-1"/>
<feGaussianBlur stdDeviation="2"/>
<feComposite in2="hardAlpha" operator="out"/>
<feColorMatrix type="matrix" values="0 0 0 0 0 0 0 0 0 0 0 0 0 0 0 0 0 0 0.25 0"/>
<feBlend mode="normal" in2="BackgroundImageFix" result="effect1_dropShadow_78_15120"/>
<feBlend mode="normal" in="SourceGraphic" in2="effect1_dropShadow_78_15120" result="shape"/>
</filter>
<filter id="filter3_f_78_15120" x="-89.7" y="-164.7" width="532.4" height="596.4" filterUnits="userSpaceOnUse" color-interpolation-filters="sRGB">
<feFlood flood-opacity="0" result="BackgroundImageFix"/>
<feBlend mode="normal" in="SourceGraphic" in2="BackgroundImageFix" result="shape"/>
<feGaussianBlur stdDeviation="83.85" result="effect1_foregroundBlur_78_15120"/>
</filter>
<filter id="filter4_f_78_15120" x="53.8" y="-47.2" width="253.4" height="374.4" filterUnits="userSpaceOnUse" color-interpolation-filters="sRGB">
<feFlood flood-opacity="0" result="BackgroundImageFix"/>
<feBlend mode="normal" in="SourceGraphic" in2="BackgroundImageFix" result="shape"/>
<feGaussianBlur stdDeviation="23.6" result="effect1_foregroundBlur_78_15120"/>
</filter>
<filter id="filter5_d_78_15120" x="228" y="91.5" width="128" height="9" filterUnits="userSpaceOnUse" color-interpolation-filters="sRGB">
<feFlood flood-opacity="0" result="BackgroundImageFix"/>
<feColorMatrix in="SourceAlpha" type="matrix" values="0 0 0 0 0 0 0 0 0 0 0 0 0 0 0 0 0 0 127 0" result="hardAlpha"/>
<feOffset/>
<feGaussianBlur stdDeviation="2"/>
<feComposite in2="hardAlpha" operator="out"/>
<feColorMatrix type="matrix" values="0 0 0 0 1 0 0 0 0 1 0 0 0 0 1 0 0 0 1 0"/>
<feBlend mode="normal" in2="BackgroundImageFix" result="effect1_dropShadow_78_15120"/>
<feBlend mode="normal" in="SourceGraphic" in2="effect1_dropShadow_78_15120" result="shape"/>
</filter>
<linearGradient id="paint0_linear_78_15120" x1="-34.7291" y1="31.323" x2="71.1429" y2="363.959" gradientUnits="userSpaceOnUse">
<stop stop-color="#0B0B0B"/>
<stop offset="1" stop-color="#1D2333"/>
</linearGradient>
<linearGradient id="paint1_linear_78_15120" x1="252" y1="84.5" x2="330" y2="84.5" gradientUnits="userSpaceOnUse">
<stop stop-color="white"/>
<stop offset="1" stop-color="#5C73AE"/>
</linearGradient>
<radialGradient id="paint2_radial_78_15120" cx="0" cy="0" r="1" gradientUnits="userSpaceOnUse" gradientTransform="translate(167.5 82) rotate(-90.2702) scale(37.0475 37.5918)">
<stop stop-color="#C7D7FF"/>
<stop offset="1" stop-color="#788199"/>
</radialGradient>
<radialGradient id="paint3_radial_78_15120" cx="0" cy="0" r="1" gradientUnits="userSpaceOnUse" gradientTransform="translate(198.5 112) rotate(-90.2862) scale(21.7927 23.4267)">
<stop stop-color="#C7D7FF"/>
<stop offset="1" stop-color="#788199"/>
</radialGradient>
<linearGradient id="paint4_linear_78_15120" x1="232" y1="92.5" x2="120" y2="92.5" gradientUnits="userSpaceOnUse">
<stop stop-color="#7687B5"/>
<stop offset="1" stop-color="#333B4F"/>
</linearGradient>
<linearGradient id="paint5_linear_78_15120" x1="240" y1="92.5" x2="112" y2="92.5" gradientUnits="userSpaceOnUse">
<stop stop-color="#7687B5"/>
<stop offset="1" stop-color="#333B4F"/>
</linearGradient>
<linearGradient id="paint6_linear_78_15120" x1="352" y1="140" x2="0" y2="140" gradientUnits="userSpaceOnUse">
<stop stop-color="#7687B5"/>
<stop offset="1" stop-color="#333B4F"/>
</linearGradient>
<clipPath id="clip0_78_15120">
<rect width="352" height="280" rx="16" fill="white"/>
</clipPath>
<clipPath id="clip1_78_15120">
<rect x="120" y="39" width="112" height="107" rx="16" fill="white"/>
</clipPath>
</defs>
</svg>
