<svg width="352" height="280" viewBox="0 0 352 280" fill="none" xmlns="http://www.w3.org/2000/svg">
<g clip-path="url(#clip0_78_15106)">
<rect width="352" height="280" rx="16" fill="url(#paint0_linear_78_15106)"/>
<g filter="url(#filter0_f_78_15106)">
<ellipse cx="22.5033" cy="45.5666" rx="22.5033" ry="45.5666" transform="matrix(0.937015 0.349289 -0.867134 0.498075 47.2383 -8.71606)" fill="#C7D7FF"/>
</g>
<path d="M258.3 83.05C258.1 82.59 257.793 82.23 257.38 81.97C256.973 81.7033 256.493 81.57 255.94 81.57C255.42 81.57 254.953 81.69 254.54 81.93C254.127 82.17 253.8 82.5133 253.56 82.96C253.32 83.4 253.2 83.9133 253.2 84.5C253.2 85.0867 253.32 85.6033 253.56 86.05C253.8 86.4967 254.127 86.84 254.54 87.08C254.953 87.32 255.42 87.44 255.94 87.44C256.427 87.44 256.863 87.3367 257.25 87.13C257.643 86.9167 257.957 86.6167 258.19 86.23C258.43 85.8367 258.567 85.38 258.6 84.86H255.66V84.29H259.34V84.8C259.307 85.4133 259.14 85.97 258.84 86.47C258.54 86.9633 258.137 87.3533 257.63 87.64C257.13 87.9267 256.567 88.07 255.94 88.07C255.293 88.07 254.707 87.92 254.18 87.62C253.653 87.3133 253.237 86.89 252.93 86.35C252.63 85.8033 252.48 85.1867 252.48 84.5C252.48 83.8133 252.63 83.2 252.93 82.66C253.237 82.1133 253.653 81.69 254.18 81.39C254.707 81.0833 255.293 80.93 255.94 80.93C256.687 80.93 257.34 81.1167 257.9 81.49C258.46 81.8633 258.867 82.3833 259.12 83.05H258.3ZM261.322 81.58V84.19H263.972V84.77H261.322V87.42H264.272V88H260.622V81H264.272V81.58H261.322ZM270.922 88H270.222L266.352 82.12V88H265.652V81.01H266.352L270.222 86.88V81.01H270.922V88ZM279.301 86.34H276.121L275.511 88H274.771L277.321 81.1H278.111L280.651 88H279.911L279.301 86.34ZM279.091 85.76L277.711 81.98L276.331 85.76H279.091ZM282.475 81.01V88H281.775V81.01H282.475ZM291.274 83.02C291.274 83.62 291.077 84.1033 290.684 84.47C290.291 84.8367 289.701 85.02 288.914 85.02H287.504V88H286.804V81.01H288.914C289.694 81.01 290.281 81.1933 290.674 81.56C291.074 81.9267 291.274 82.4133 291.274 83.02ZM288.914 84.42C290.007 84.42 290.554 83.9533 290.554 83.02C290.554 82.5533 290.424 82.2 290.164 81.96C289.904 81.72 289.487 81.6 288.914 81.6H287.504V84.42H288.914ZM294.838 88.08C294.325 88.08 293.862 87.9667 293.448 87.74C293.042 87.5067 292.718 87.18 292.478 86.76C292.245 86.3333 292.128 85.8367 292.128 85.27C292.128 84.7033 292.248 84.21 292.488 83.79C292.728 83.3633 293.055 83.0367 293.468 82.81C293.882 82.5767 294.345 82.46 294.858 82.46C295.372 82.46 295.835 82.5767 296.248 82.81C296.668 83.0367 296.995 83.3633 297.228 83.79C297.468 84.21 297.588 84.7033 297.588 85.27C297.588 85.83 297.468 86.3233 297.228 86.75C296.988 87.1767 296.658 87.5067 296.238 87.74C295.818 87.9667 295.352 88.08 294.838 88.08ZM294.838 87.47C295.198 87.47 295.532 87.39 295.838 87.23C296.145 87.0633 296.392 86.8167 296.578 86.49C296.772 86.1567 296.868 85.75 296.868 85.27C296.868 84.79 296.775 84.3867 296.588 84.06C296.402 83.7267 296.155 83.48 295.848 83.32C295.542 83.1533 295.208 83.07 294.848 83.07C294.488 83.07 294.155 83.1533 293.848 83.32C293.542 83.48 293.295 83.7267 293.108 84.06C292.928 84.3867 292.838 84.79 292.838 85.27C292.838 85.75 292.928 86.1567 293.108 86.49C293.295 86.8167 293.538 87.0633 293.838 87.23C294.145 87.39 294.478 87.47 294.838 87.47ZM306.064 82.54L304.354 88H303.654L302.144 83.42L300.634 88H299.924L298.214 82.54H298.924L300.284 87.29L301.814 82.54H302.514L304.024 87.3L305.374 82.54H306.064ZM311.959 84.99C311.959 85.23 311.952 85.4133 311.939 85.54H307.409C307.429 85.9533 307.529 86.3067 307.709 86.6C307.889 86.8933 308.125 87.1167 308.419 87.27C308.712 87.4167 309.032 87.49 309.379 87.49C309.832 87.49 310.212 87.38 310.519 87.16C310.832 86.94 311.039 86.6433 311.139 86.27H311.879C311.745 86.8033 311.459 87.24 311.019 87.58C310.585 87.9133 310.039 88.08 309.379 88.08C308.865 88.08 308.405 87.9667 307.999 87.74C307.592 87.5067 307.272 87.18 307.039 86.76C306.812 86.3333 306.699 85.8367 306.699 85.27C306.699 84.7033 306.812 84.2067 307.039 83.78C307.265 83.3533 307.582 83.0267 307.989 82.8C308.395 82.5733 308.859 82.46 309.379 82.46C309.899 82.46 310.352 82.5733 310.739 82.8C311.132 83.0267 311.432 83.3333 311.639 83.72C311.852 84.1 311.959 84.5233 311.959 84.99ZM311.249 84.97C311.255 84.5633 311.172 84.2167 310.999 83.93C310.832 83.6433 310.602 83.4267 310.309 83.28C310.015 83.1333 309.695 83.06 309.349 83.06C308.829 83.06 308.385 83.2267 308.019 83.56C307.652 83.8933 307.449 84.3633 307.409 84.97H311.249ZM313.939 83.51C314.093 83.17 314.326 82.9067 314.639 82.72C314.959 82.5333 315.349 82.44 315.809 82.44V83.17H315.619C315.113 83.17 314.706 83.3067 314.399 83.58C314.093 83.8533 313.939 84.31 313.939 84.95V88H313.239V82.54H313.939V83.51ZM321.803 84.99C321.803 85.23 321.796 85.4133 321.783 85.54H317.253C317.273 85.9533 317.373 86.3067 317.553 86.6C317.733 86.8933 317.969 87.1167 318.263 87.27C318.556 87.4167 318.876 87.49 319.223 87.49C319.676 87.49 320.056 87.38 320.363 87.16C320.676 86.94 320.883 86.6433 320.983 86.27H321.723C321.589 86.8033 321.303 87.24 320.863 87.58C320.429 87.9133 319.883 88.08 319.223 88.08C318.709 88.08 318.249 87.9667 317.843 87.74C317.436 87.5067 317.116 87.18 316.883 86.76C316.656 86.3333 316.543 85.8367 316.543 85.27C316.543 84.7033 316.656 84.2067 316.883 83.78C317.109 83.3533 317.426 83.0267 317.833 82.8C318.239 82.5733 318.703 82.46 319.223 82.46C319.743 82.46 320.196 82.5733 320.583 82.8C320.976 83.0267 321.276 83.3333 321.483 83.72C321.696 84.1 321.803 84.5233 321.803 84.99ZM321.093 84.97C321.099 84.5633 321.016 84.2167 320.843 83.93C320.676 83.6433 320.446 83.4267 320.153 83.28C319.859 83.1333 319.539 83.06 319.193 83.06C318.673 83.06 318.229 83.2267 317.863 83.56C317.496 83.8933 317.293 84.3633 317.253 84.97H321.093ZM322.763 85.26C322.763 84.7 322.877 84.21 323.103 83.79C323.33 83.3633 323.64 83.0367 324.033 82.81C324.433 82.5767 324.883 82.46 325.383 82.46C325.863 82.46 326.297 82.5767 326.683 82.81C327.07 83.0433 327.353 83.3467 327.533 83.72V80.6H328.233V88H327.533V86.78C327.367 87.16 327.093 87.4733 326.713 87.72C326.333 87.96 325.887 88.08 325.373 88.08C324.873 88.08 324.423 87.9633 324.023 87.73C323.63 87.4967 323.32 87.1667 323.093 86.74C322.873 86.3133 322.763 85.82 322.763 85.26ZM327.533 85.27C327.533 84.83 327.443 84.4433 327.263 84.11C327.083 83.7767 326.837 83.52 326.523 83.34C326.217 83.16 325.877 83.07 325.503 83.07C325.117 83.07 324.77 83.1567 324.463 83.33C324.157 83.5033 323.913 83.7567 323.733 84.09C323.56 84.4167 323.473 84.8067 323.473 85.26C323.473 85.7067 323.56 86.1 323.733 86.44C323.913 86.7733 324.157 87.03 324.463 87.21C324.77 87.3833 325.117 87.47 325.503 87.47C325.877 87.47 326.217 87.38 326.523 87.2C326.837 87.02 327.083 86.7633 327.263 86.43C327.443 86.0967 327.533 85.71 327.533 85.27Z" fill="url(#paint1_linear_78_15106)"/>
<g clip-path="url(#clip1_78_15106)">
<rect x="120" y="39" width="112" height="107" rx="16" fill="#788199" fill-opacity="0.21"/>
<g filter="url(#filter1_f_78_15106)">
<circle cx="176" cy="92" r="21" fill="#7687B5"/>
</g>
<path d="M137.159 81.5007C137.159 82.2981 137.251 83.0328 137.312 83.8603L133.942 85.6382C133.268 85.9742 132.901 86.6488 133.023 87.475C133.176 88.241 133.728 88.7927 134.555 88.8842L138.263 89.4359C138.66 90.938 139.243 92.4387 139.886 93.9094L137.404 96.6678C136.852 97.2496 136.731 97.9843 137.159 98.7503C137.527 99.4249 138.263 99.7007 139.059 99.5478L142.734 98.7817C143.641 100.08 144.655 101.3 145.767 102.428L144.329 105.859C144.022 106.625 144.175 107.33 144.879 107.912C145.431 108.433 146.227 108.494 146.902 108.065L150.087 106.074C151.375 106.993 152.754 107.729 154.224 108.433L154.04 112.172C154.01 112.967 154.439 113.642 155.203 113.917C155.971 114.162 156.705 113.917 157.196 113.274L159.524 110.363C160.994 110.762 162.588 111.069 164.242 111.19L165.344 114.745C165.62 115.511 166.203 116 167.031 116C167.827 116 168.408 115.511 168.684 114.745L169.818 111.189C171.472 111.068 173.004 110.762 174.505 110.363L176.864 113.273C177.323 113.917 178.028 114.162 178.794 113.917C179.56 113.642 179.99 112.967 179.959 112.171L179.806 108.432C181.276 107.729 182.655 106.994 183.941 106.074L187.127 108.066C187.771 108.494 188.567 108.432 189.119 107.912C189.824 107.33 190.008 106.625 189.671 105.859L188.292 102.428C189.376 101.283 190.379 100.064 191.294 98.7804L194.94 99.5478C195.767 99.7007 196.502 99.4249 196.871 98.7503C197.268 97.9843 197.207 97.2496 196.595 96.6678L194.174 93.9094C194.805 92.4557 195.337 90.9612 195.767 89.4359L199.474 88.8842C200.272 88.7927 200.852 88.241 200.975 87.475C201.098 86.6475 200.761 85.9742 200.086 85.6369L196.716 83.859C196.778 83.0328 196.839 82.2968 196.839 81.5007C196.839 80.6731 196.778 79.9384 196.716 79.0796L200.086 77.3343C200.761 76.997 201.098 76.3225 200.975 75.4649C200.852 74.6988 200.271 74.1772 199.474 74.0556L195.797 73.534C195.354 72.0092 194.812 70.5149 194.174 69.0605L196.595 66.3034C197.207 65.6903 197.268 64.9556 196.869 64.2196C196.503 63.5464 195.767 63.2705 194.94 63.4222L191.293 64.1895C190.387 62.8897 189.384 61.6604 188.292 60.5121L189.671 57.1119C190.008 56.3458 189.824 55.6098 189.119 55.0281C188.855 54.7901 188.519 54.6462 188.165 54.6185C187.81 54.5908 187.456 54.6811 187.158 54.8751L183.94 56.8975C182.654 55.9785 181.274 55.2425 179.804 54.5378L179.957 50.7689C179.987 49.9715 179.559 49.2982 178.794 49.0538C178.027 48.808 177.322 49.0224 176.863 49.6656L174.504 52.607C173.003 52.2095 171.471 51.8723 169.816 51.7808L168.683 48.2249C168.438 47.4301 167.855 47 167.028 47C166.202 47 165.619 47.4301 165.343 48.2262L164.21 51.7808C162.586 51.8723 160.994 52.2095 159.522 52.6083L157.196 49.6669C156.705 49.0224 155.969 48.808 155.205 49.0524C154.439 49.2982 154.01 49.9728 154.04 50.7689L154.223 54.5378C152.754 55.2438 151.373 55.9785 150.089 56.8661L146.902 54.9052C146.227 54.4463 145.431 54.5078 144.879 55.0281C144.175 55.6098 144.022 56.3458 144.328 57.1119L145.768 60.5121C144.635 61.6469 143.625 62.9032 142.736 64.1895L139.059 63.4235C138.261 63.2705 137.527 63.5464 137.159 64.2209C136.731 64.9857 136.853 65.7217 137.404 66.3034L139.886 69.0304C139.243 70.5011 138.66 72.0019 138.263 73.534L134.555 74.0556C133.728 74.1772 133.176 74.6988 133.023 75.4649C132.901 76.3225 133.268 76.997 133.942 77.3343L137.312 79.0796C137.251 79.9071 137.159 80.6744 137.159 81.5007ZM168.96 89.1914C172.82 87.7508 174.934 84.9323 174.934 81.4091C174.934 80.8875 174.872 80.2757 174.659 79.2953L189.671 70.5011C191.294 73.7798 192.183 77.5173 192.183 81.5007C192.183 94.8598 182.042 105.338 168.96 106.288V89.1914ZM166.999 56.6216C175.517 56.6216 183.022 60.635 187.556 66.978L172.453 75.8323C170.736 74.1772 168.869 73.4125 166.876 73.4125C164.947 73.4125 163.169 74.1472 161.393 75.8323L146.564 66.7636C151.13 60.5736 158.543 56.6216 166.999 56.6216ZM166.908 77.7317C168.99 77.7317 170.615 79.5097 170.615 81.4706C170.615 83.5531 168.99 85.2696 166.908 85.2696C164.856 85.2696 163.169 83.5531 163.169 81.4706C163.169 79.5097 164.856 77.7317 166.908 77.7317ZM141.815 81.5007C141.815 77.4258 142.766 73.6269 144.419 70.2867L159.156 79.294C158.911 80.2444 158.85 80.8888 158.85 81.4091C158.85 84.9624 161.026 87.7822 164.977 89.1914V106.287C151.958 105.306 141.815 94.8285 141.815 81.5007Z" fill="url(#paint2_radial_78_15106)"/>
<g filter="url(#filter2_d_78_15106)">
<path d="M180.447 111.5C180.447 111.997 180.5 112.455 180.537 112.971L178.554 114.079C178.158 114.288 177.942 114.709 178.014 115.224C178.104 115.701 178.428 116.045 178.915 116.102L181.096 116.446C181.329 117.382 181.672 118.317 182.051 119.233L180.59 120.952C180.266 121.315 180.194 121.773 180.447 122.25C180.663 122.671 181.096 122.842 181.564 122.747L183.726 122.27C184.259 123.079 184.856 123.839 185.51 124.542L184.664 126.68C184.484 127.158 184.573 127.597 184.988 127.96C185.312 128.285 185.781 128.322 186.177 128.055L188.051 126.814C188.809 127.387 189.62 127.845 190.485 128.285L190.377 130.615C190.359 131.11 190.611 131.53 191.061 131.702C191.512 131.855 191.944 131.702 192.233 131.301L193.602 129.487C194.467 129.736 195.404 129.927 196.378 130.003L197.026 132.218C197.188 132.695 197.531 133 198.018 133C198.486 133 198.828 132.695 198.991 132.218L199.657 130.002C200.631 129.926 201.532 129.736 202.415 129.487L203.803 131.301C204.073 131.702 204.487 131.855 204.938 131.702C205.388 131.53 205.641 131.11 205.623 130.614L205.533 128.284C206.398 127.845 207.209 127.388 207.966 126.814L209.839 128.056C210.218 128.322 210.687 128.284 211.011 127.96C211.426 127.597 211.534 127.158 211.336 126.68L210.525 124.542C211.162 123.829 211.752 123.069 212.291 122.269L214.435 122.747C214.922 122.842 215.354 122.671 215.571 122.25C215.805 121.773 215.769 121.315 215.409 120.952L213.985 119.233C214.356 118.327 214.669 117.396 214.922 116.446L217.103 116.102C217.572 116.045 217.913 115.701 217.985 115.224C218.058 114.708 217.859 114.288 217.462 114.078L215.48 112.97C215.516 112.455 215.552 111.997 215.552 111.5C215.552 110.985 215.516 110.527 215.48 109.992L217.462 108.904C217.859 108.694 218.058 108.273 217.985 107.739C217.913 107.262 217.571 106.937 217.103 106.861L214.94 106.536C214.679 105.585 214.36 104.654 213.985 103.748L215.409 102.03C215.769 101.648 215.805 101.19 215.57 100.731C215.355 100.311 214.922 100.14 214.435 100.234L212.29 100.712C211.757 99.9023 211.167 99.1362 210.525 98.4206L211.336 96.3016C211.534 95.8242 211.426 95.3655 211.011 95.003C210.856 94.8547 210.658 94.765 210.45 94.7478C210.241 94.7305 210.033 94.7867 209.858 94.9077L207.965 96.168C207.208 95.5953 206.396 95.1366 205.532 94.6975L205.622 92.3487C205.64 91.8518 205.387 91.4322 204.938 91.2799C204.486 91.1267 204.072 91.2603 203.802 91.6611L202.414 93.4942C201.531 93.2465 200.63 93.0363 199.657 92.9793L198.99 90.7634C198.846 90.268 198.503 90 198.016 90C197.531 90 197.188 90.268 197.025 90.7642L196.359 92.9793C195.404 93.0363 194.467 93.2465 193.601 93.495L192.233 91.662C191.944 91.2603 191.511 91.1267 191.062 91.2791C190.611 91.4322 190.359 91.8526 190.377 92.3487L190.484 94.6975C189.62 95.1374 188.808 95.5953 188.052 96.1484L186.177 94.9264C185.781 94.6405 185.312 94.6787 184.988 95.003C184.573 95.3655 184.484 95.8242 184.663 96.3016L185.511 98.4206C184.844 99.1278 184.25 99.9107 183.727 100.712L181.564 100.235C181.095 100.14 180.663 100.311 180.447 100.732C180.194 101.208 180.267 101.667 180.59 102.03L182.051 103.729C181.672 104.646 181.329 105.581 181.096 106.536L178.915 106.861C178.428 106.937 178.104 107.262 178.014 107.739C177.942 108.273 178.158 108.694 178.554 108.904L180.537 109.992C180.5 110.507 180.447 110.986 180.447 111.5ZM199.153 116.293C201.424 115.395 202.667 113.639 202.667 111.443C202.667 111.118 202.631 110.737 202.505 110.126L211.336 104.646C212.291 106.689 212.814 109.018 212.814 111.5C212.814 119.826 206.848 126.355 199.153 126.948V116.293ZM198 95.9961C203.01 95.9961 207.425 98.4972 210.092 102.45L201.208 107.968C200.198 106.937 199.099 106.46 197.927 106.46C196.792 106.46 195.747 106.918 194.702 107.968L185.979 102.316C188.665 98.4589 193.025 95.9961 198 95.9961ZM197.946 109.152C199.171 109.152 200.126 110.26 200.126 111.482C200.126 112.779 199.171 113.849 197.946 113.849C196.739 113.849 195.747 112.779 195.747 111.482C195.747 110.26 196.739 109.152 197.946 109.152ZM183.186 111.5C183.186 108.961 183.745 106.594 184.717 104.512L193.386 110.125C193.242 110.717 193.206 111.119 193.206 111.443C193.206 113.658 194.486 115.415 196.81 116.293V126.947C189.152 126.336 183.186 119.806 183.186 111.5Z" fill="url(#paint3_radial_78_15106)"/>
</g>
</g>
<rect x="120.5" y="39.5" width="111" height="106" rx="15.5" stroke="black"/>
<rect x="120.5" y="39.5" width="111" height="106" rx="15.5" stroke="url(#paint4_linear_78_15106)"/>
<g style="mix-blend-mode:plus-lighter" filter="url(#filter3_f_78_15106)">
<path d="M172.649 3H185.315L275 264H78L172.649 3Z" fill="#263048"/>
</g>
<g style="mix-blend-mode:plus-lighter" filter="url(#filter4_f_78_15106)">
<path d="M177.392 0H187.614L260 280H101L177.392 0Z" fill="#0C0C0C"/>
</g>
<rect x="112.5" y="31.5" width="127" height="122" rx="20.5" stroke="url(#paint5_linear_78_15106)"/>
<g style="mix-blend-mode:plus-lighter" filter="url(#filter5_d_78_15106)">
<path d="M352 96H232" stroke="white"/>
</g>
</g>
<rect x="0.5" y="0.5" width="351" height="279" rx="15.5" stroke="url(#paint6_linear_78_15106)"/>
<defs>
<filter id="filter0_f_78_15106" x="-155.183" y="-141.385" width="367.991" height="326.449" filterUnits="userSpaceOnUse" color-interpolation-filters="sRGB">
<feFlood flood-opacity="0" result="BackgroundImageFix"/>
<feBlend mode="normal" in="SourceGraphic" in2="BackgroundImageFix" result="shape"/>
<feGaussianBlur stdDeviation="69.6" result="effect1_foregroundBlur_78_15106"/>
</filter>
<filter id="filter1_f_78_15106" x="112.9" y="28.9" width="126.2" height="126.2" filterUnits="userSpaceOnUse" color-interpolation-filters="sRGB">
<feFlood flood-opacity="0" result="BackgroundImageFix"/>
<feBlend mode="normal" in="SourceGraphic" in2="BackgroundImageFix" result="shape"/>
<feGaussianBlur stdDeviation="21.05" result="effect1_foregroundBlur_78_15106"/>
</filter>
<filter id="filter2_d_78_15106" x="172" y="85" width="48" height="51" filterUnits="userSpaceOnUse" color-interpolation-filters="sRGB">
<feFlood flood-opacity="0" result="BackgroundImageFix"/>
<feColorMatrix in="SourceAlpha" type="matrix" values="0 0 0 0 0 0 0 0 0 0 0 0 0 0 0 0 0 0 127 0" result="hardAlpha"/>
<feOffset dx="-2" dy="-1"/>
<feGaussianBlur stdDeviation="2"/>
<feComposite in2="hardAlpha" operator="out"/>
<feColorMatrix type="matrix" values="0 0 0 0 0 0 0 0 0 0 0 0 0 0 0 0 0 0 0.25 0"/>
<feBlend mode="normal" in2="BackgroundImageFix" result="effect1_dropShadow_78_15106"/>
<feBlend mode="normal" in="SourceGraphic" in2="effect1_dropShadow_78_15106" result="shape"/>
</filter>
<filter id="filter3_f_78_15106" x="-89.7" y="-164.7" width="532.4" height="596.4" filterUnits="userSpaceOnUse" color-interpolation-filters="sRGB">
<feFlood flood-opacity="0" result="BackgroundImageFix"/>
<feBlend mode="normal" in="SourceGraphic" in2="BackgroundImageFix" result="shape"/>
<feGaussianBlur stdDeviation="83.85" result="effect1_foregroundBlur_78_15106"/>
</filter>
<filter id="filter4_f_78_15106" x="53.8" y="-47.2" width="253.4" height="374.4" filterUnits="userSpaceOnUse" color-interpolation-filters="sRGB">
<feFlood flood-opacity="0" result="BackgroundImageFix"/>
<feBlend mode="normal" in="SourceGraphic" in2="BackgroundImageFix" result="shape"/>
<feGaussianBlur stdDeviation="23.6" result="effect1_foregroundBlur_78_15106"/>
</filter>
<filter id="filter5_d_78_15106" x="228" y="91.5" width="128" height="9" filterUnits="userSpaceOnUse" color-interpolation-filters="sRGB">
<feFlood flood-opacity="0" result="BackgroundImageFix"/>
<feColorMatrix in="SourceAlpha" type="matrix" values="0 0 0 0 0 0 0 0 0 0 0 0 0 0 0 0 0 0 127 0" result="hardAlpha"/>
<feOffset/>
<feGaussianBlur stdDeviation="2"/>
<feComposite in2="hardAlpha" operator="out"/>
<feColorMatrix type="matrix" values="0 0 0 0 1 0 0 0 0 1 0 0 0 0 1 0 0 0 1 0"/>
<feBlend mode="normal" in2="BackgroundImageFix" result="effect1_dropShadow_78_15106"/>
<feBlend mode="normal" in="SourceGraphic" in2="effect1_dropShadow_78_15106" result="shape"/>
</filter>
<linearGradient id="paint0_linear_78_15106" x1="-34.7291" y1="31.323" x2="71.1429" y2="363.959" gradientUnits="userSpaceOnUse">
<stop stop-color="#0B0B0B"/>
<stop offset="1" stop-color="#1D2333"/>
</linearGradient>
<linearGradient id="paint1_linear_78_15106" x1="252" y1="84.5" x2="330" y2="84.5" gradientUnits="userSpaceOnUse">
<stop stop-color="white"/>
<stop offset="1" stop-color="#5C73AE"/>
</linearGradient>
<radialGradient id="paint2_radial_78_15106" cx="0" cy="0" r="1" gradientUnits="userSpaceOnUse" gradientTransform="translate(167 81.5) rotate(179.73) scale(37.0475 37.5918)">
<stop stop-color="#C7D7FF"/>
<stop offset="1" stop-color="#788199"/>
</radialGradient>
<radialGradient id="paint3_radial_78_15106" cx="0" cy="0" r="1" gradientUnits="userSpaceOnUse" gradientTransform="translate(198 111.5) rotate(179.714) scale(21.7927 23.4267)">
<stop stop-color="#C7D7FF"/>
<stop offset="1" stop-color="#788199"/>
</radialGradient>
<linearGradient id="paint4_linear_78_15106" x1="232" y1="92.5" x2="120" y2="92.5" gradientUnits="userSpaceOnUse">
<stop stop-color="#7687B5"/>
<stop offset="1" stop-color="#333B4F"/>
</linearGradient>
<linearGradient id="paint5_linear_78_15106" x1="240" y1="92.5" x2="112" y2="92.5" gradientUnits="userSpaceOnUse">
<stop stop-color="#7687B5"/>
<stop offset="1" stop-color="#333B4F"/>
</linearGradient>
<linearGradient id="paint6_linear_78_15106" x1="352" y1="140" x2="0" y2="140" gradientUnits="userSpaceOnUse">
<stop stop-color="#7687B5"/>
<stop offset="1" stop-color="#333B4F"/>
</linearGradient>
<clipPath id="clip0_78_15106">
<rect width="352" height="280" rx="16" fill="white"/>
</clipPath>
<clipPath id="clip1_78_15106">
<rect x="120" y="39" width="112" height="107" rx="16" fill="white"/>
</clipPath>
</defs>
</svg>
