<svg width="352" height="280" viewBox="0 0 352 280" fill="none" xmlns="http://www.w3.org/2000/svg">
<g clip-path="url(#clip0_78_15172)">
<rect width="352" height="280" rx="16" fill="url(#paint0_linear_78_15172)"/>
<g filter="url(#filter0_f_78_15172)">
<ellipse cx="22.5033" cy="45.5666" rx="22.5033" ry="45.5666" transform="matrix(0.937015 0.349289 -0.867134 0.498075 47.2383 -8.71606)" fill="#C7D7FF"/>
</g>
<g style="mix-blend-mode:plus-lighter" filter="url(#filter1_f_78_15172)">
<path d="M172.649 -1H185.315L275 260H78L172.649 -1Z" fill="#263048"/>
</g>
<g style="mix-blend-mode:plus-lighter" filter="url(#filter2_f_78_15172)">
<path d="M177.392 -4H187.614L260 276H101L177.392 -4Z" fill="#0C0C0C"/>
</g>
<path d="M231.002 58.3797C233.024 58.1415 235.061 58.6755 236.706 59.8749C238.35 61.0743 239.481 62.8506 239.872 64.8482L239.978 65.558L240 66V95.75C240 96.791 240.382 97.7957 241.074 98.5736C241.765 99.3515 242.719 99.8484 243.752 99.9702L244.25 100H273.15C275.404 100 277.566 100.896 279.16 102.49C280.754 104.084 281.65 106.246 281.65 108.5C281.65 108.823 281.612 109.146 281.539 109.46C279.838 116.799 276.218 123.553 271.048 129.032C265.878 134.511 259.345 138.517 252.118 140.641C244.891 142.764 237.229 142.929 229.917 141.117C222.605 139.306 215.906 135.584 210.506 130.332C205.106 125.08 201.199 118.487 199.184 111.229C197.17 103.97 197.121 96.3069 199.043 89.0233C200.964 81.7396 204.787 75.0976 210.12 69.7773C215.453 64.457 222.104 60.6497 229.392 58.7452L230.539 58.4605L231.002 58.3797Z" fill="black"/>
<path d="M231.002 58.3797C233.024 58.1415 235.061 58.6755 236.706 59.8749C238.35 61.0743 239.481 62.8506 239.872 64.8482L239.978 65.558L240 66V95.75C240 96.791 240.382 97.7957 241.074 98.5736C241.765 99.3515 242.719 99.8484 243.752 99.9702L244.25 100H273.15C275.404 100 277.566 100.896 279.16 102.49C280.754 104.084 281.65 106.246 281.65 108.5C281.65 108.823 281.612 109.146 281.539 109.46C279.838 116.799 276.218 123.553 271.048 129.032C265.878 134.511 259.345 138.517 252.118 140.641C244.891 142.764 237.229 142.929 229.917 141.117C222.605 139.306 215.906 135.584 210.506 130.332C205.106 125.08 201.199 118.487 199.184 111.229C197.17 103.97 197.121 96.3069 199.043 89.0233C200.964 81.7396 204.787 75.0976 210.12 69.7773C215.453 64.457 222.104 60.6497 229.392 58.7452L230.539 58.4605L231.002 58.3797Z" fill="url(#paint1_linear_78_15172)"/>
<path d="M248.5 63.8751V87.2501C248.5 88.3772 248.948 89.4582 249.745 90.2553C250.542 91.0523 251.623 91.5001 252.75 91.5001H276.125C276.804 91.4999 277.474 91.3369 278.077 91.0247C278.68 90.7125 279.2 90.2602 279.593 89.7058C279.985 89.1513 280.239 88.5109 280.333 87.8381C280.427 87.1654 280.358 86.4799 280.133 85.8391C278.022 79.8437 274.593 74.3982 270.099 69.9034C265.605 65.4086 260.16 61.9791 254.165 59.8673C253.524 59.6409 252.838 59.5716 252.165 59.6652C251.492 59.7588 250.851 60.0126 250.296 60.4052C249.741 60.7978 249.288 61.3178 248.975 61.9216C248.663 62.5253 248.5 63.1953 248.5 63.8751Z" fill="black"/>
<path d="M248.5 63.8751V87.2501C248.5 88.3772 248.948 89.4582 249.745 90.2553C250.542 91.0523 251.623 91.5001 252.75 91.5001H276.125C276.804 91.4999 277.474 91.3369 278.077 91.0247C278.68 90.7125 279.2 90.2602 279.593 89.7058C279.985 89.1513 280.239 88.5109 280.333 87.8381C280.427 87.1654 280.358 86.4799 280.133 85.8391C278.022 79.8437 274.593 74.3982 270.099 69.9034C265.605 65.4086 260.16 61.9791 254.165 59.8673C253.524 59.6409 252.838 59.5716 252.165 59.6652C251.492 59.7588 250.851 60.0126 250.296 60.4052C249.741 60.7978 249.288 61.3178 248.975 61.9216C248.663 62.5253 248.5 63.1953 248.5 63.8751Z" fill="url(#paint2_linear_78_15172)"/>
<g clip-path="url(#clip1_78_15172)">
<rect x="63" y="38" width="120" height="115" rx="16" fill="#788199" fill-opacity="0.21"/>
<g filter="url(#filter3_f_78_15172)">
<circle cx="119" cy="91" r="21" fill="#7687B5"/>
</g>
<g filter="url(#filter4_d_78_15172)">
<rect x="76" y="114" width="14" height="26" rx="7" fill="#263048"/>
<rect x="76" y="114" width="14" height="26" rx="7" fill="url(#paint3_linear_78_15172)"/>
<rect x="103" y="92" width="14" height="48" rx="7" fill="#263048"/>
<rect x="103" y="92" width="14" height="48" rx="7" fill="url(#paint4_linear_78_15172)"/>
<rect x="131" y="77" width="14" height="63" rx="7" fill="#263048"/>
<rect x="131" y="77" width="14" height="63" rx="7" fill="url(#paint5_linear_78_15172)"/>
<rect x="158" y="63" width="14" height="77" rx="7" fill="#263048"/>
<rect x="158" y="63" width="14" height="77" rx="7" fill="url(#paint6_linear_78_15172)"/>
</g>
</g>
<rect x="63.5" y="38.5" width="119" height="114" rx="15.5" stroke="black"/>
<rect x="63.5" y="38.5" width="119" height="114" rx="15.5" stroke="url(#paint7_linear_78_15172)"/>
</g>
<rect x="0.5" y="0.5" width="351" height="279" rx="15.5" stroke="url(#paint8_linear_78_15172)"/>
<defs>
<filter id="filter0_f_78_15172" x="-155.183" y="-141.385" width="367.991" height="326.449" filterUnits="userSpaceOnUse" color-interpolation-filters="sRGB">
<feFlood flood-opacity="0" result="BackgroundImageFix"/>
<feBlend mode="normal" in="SourceGraphic" in2="BackgroundImageFix" result="shape"/>
<feGaussianBlur stdDeviation="69.6" result="effect1_foregroundBlur_78_15172"/>
</filter>
<filter id="filter1_f_78_15172" x="-89.7" y="-168.7" width="532.4" height="596.4" filterUnits="userSpaceOnUse" color-interpolation-filters="sRGB">
<feFlood flood-opacity="0" result="BackgroundImageFix"/>
<feBlend mode="normal" in="SourceGraphic" in2="BackgroundImageFix" result="shape"/>
<feGaussianBlur stdDeviation="83.85" result="effect1_foregroundBlur_78_15172"/>
</filter>
<filter id="filter2_f_78_15172" x="53.8" y="-51.2" width="253.4" height="374.4" filterUnits="userSpaceOnUse" color-interpolation-filters="sRGB">
<feFlood flood-opacity="0" result="BackgroundImageFix"/>
<feBlend mode="normal" in="SourceGraphic" in2="BackgroundImageFix" result="shape"/>
<feGaussianBlur stdDeviation="23.6" result="effect1_foregroundBlur_78_15172"/>
</filter>
<filter id="filter3_f_78_15172" x="55.9" y="27.9" width="126.2" height="126.2" filterUnits="userSpaceOnUse" color-interpolation-filters="sRGB">
<feFlood flood-opacity="0" result="BackgroundImageFix"/>
<feBlend mode="normal" in="SourceGraphic" in2="BackgroundImageFix" result="shape"/>
<feGaussianBlur stdDeviation="21.05" result="effect1_foregroundBlur_78_15172"/>
</filter>
<filter id="filter4_d_78_15172" x="72" y="62" width="104" height="85" filterUnits="userSpaceOnUse" color-interpolation-filters="sRGB">
<feFlood flood-opacity="0" result="BackgroundImageFix"/>
<feColorMatrix in="SourceAlpha" type="matrix" values="0 0 0 0 0 0 0 0 0 0 0 0 0 0 0 0 0 0 127 0" result="hardAlpha"/>
<feOffset dy="3"/>
<feGaussianBlur stdDeviation="2"/>
<feComposite in2="hardAlpha" operator="out"/>
<feColorMatrix type="matrix" values="0 0 0 0 0 0 0 0 0 0 0 0 0 0 0 0 0 0 0.25 0"/>
<feBlend mode="normal" in2="BackgroundImageFix" result="effect1_dropShadow_78_15172"/>
<feBlend mode="normal" in="SourceGraphic" in2="effect1_dropShadow_78_15172" result="shape"/>
</filter>
<linearGradient id="paint0_linear_78_15172" x1="-34.7291" y1="31.323" x2="71.1429" y2="363.959" gradientUnits="userSpaceOnUse">
<stop stop-color="#0B0B0B"/>
<stop offset="1" stop-color="#1D2333"/>
</linearGradient>
<linearGradient id="paint1_linear_78_15172" x1="239.431" y1="54.5584" x2="239.597" y2="146.131" gradientUnits="userSpaceOnUse">
<stop stop-color="#C7D7FF"/>
<stop offset="1" stop-color="#788199"/>
</linearGradient>
<linearGradient id="paint2_linear_78_15172" x1="296.795" y1="56.5342" x2="264.437" y2="91.5001" gradientUnits="userSpaceOnUse">
<stop stop-color="#5C73AE" stop-opacity="0"/>
<stop offset="1" stop-color="#5C73AE"/>
</linearGradient>
<linearGradient id="paint3_linear_78_15172" x1="82.9646" y1="112.835" x2="83.0601" y2="141.165" gradientUnits="userSpaceOnUse">
<stop stop-color="#C7D7FF"/>
<stop offset="1" stop-color="#788199"/>
</linearGradient>
<linearGradient id="paint4_linear_78_15172" x1="109.965" y1="89.8491" x2="110.29" y2="142.149" gradientUnits="userSpaceOnUse">
<stop stop-color="#C7D7FF"/>
<stop offset="1" stop-color="#788199"/>
</linearGradient>
<linearGradient id="paint5_linear_78_15172" x1="137.965" y1="74.177" x2="138.525" y2="142.819" gradientUnits="userSpaceOnUse">
<stop stop-color="#C7D7FF"/>
<stop offset="1" stop-color="#788199"/>
</linearGradient>
<linearGradient id="paint6_linear_78_15172" x1="164.965" y1="59.5497" x2="165.802" y2="143.443" gradientUnits="userSpaceOnUse">
<stop stop-color="#C7D7FF"/>
<stop offset="1" stop-color="#788199"/>
</linearGradient>
<linearGradient id="paint7_linear_78_15172" x1="183" y1="95.5" x2="63" y2="95.5" gradientUnits="userSpaceOnUse">
<stop stop-color="#7687B5"/>
<stop offset="1" stop-color="#333B4F"/>
</linearGradient>
<linearGradient id="paint8_linear_78_15172" x1="352" y1="140" x2="0" y2="140" gradientUnits="userSpaceOnUse">
<stop stop-color="#7687B5"/>
<stop offset="1" stop-color="#333B4F"/>
</linearGradient>
<clipPath id="clip0_78_15172">
<rect width="352" height="280" rx="16" fill="white"/>
</clipPath>
<clipPath id="clip1_78_15172">
<rect x="63" y="38" width="120" height="115" rx="16" fill="white"/>
</clipPath>
</defs>
</svg>
