<svg width="352" height="597" viewBox="0 0 352 597" fill="none" xmlns="http://www.w3.org/2000/svg">
<g clip-path="url(#clip0_81_15271)">
<rect width="352" height="597" rx="16" fill="url(#paint0_linear_81_15271)"/>
<path opacity="0.03" d="M45 168C48.315 168 51 165.315 51 162C51 158.685 48.315 156 45 156C41.685 156 39 158.685 39 162C39 165.315 41.685 168 45 168ZM45 171C40.995 171 33 173.01 33 177V178.5C33 179.325 33.675 180 34.5 180H55.5C56.325 180 57 179.325 57 178.5V177C57 173.01 49.005 171 45 171Z" fill="#788199"/>
<path opacity="0.03" d="M238 103C241.315 103 244 100.315 244 97C244 93.685 241.315 91 238 91C234.685 91 232 93.685 232 97C232 100.315 234.685 103 238 103ZM238 106C233.995 106 226 108.01 226 112V113.5C226 114.325 226.675 115 227.5 115H248.5C249.325 115 250 114.325 250 113.5V112C250 108.01 242.005 106 238 106Z" fill="#788199"/>
<path opacity="0.03" d="M327 275C330.315 275 333 272.315 333 269C333 265.685 330.315 263 327 263C323.685 263 321 265.685 321 269C321 272.315 323.685 275 327 275ZM327 278C322.995 278 315 280.01 315 284V285.5C315 286.325 315.675 287 316.5 287H337.5C338.325 287 339 286.325 339 285.5V284C339 280.01 331.005 278 327 278Z" fill="#788199"/>
<path opacity="0.03" d="M226 417C229.315 417 232 414.315 232 411C232 407.685 229.315 405 226 405C222.685 405 220 407.685 220 411C220 414.315 222.685 417 226 417ZM226 420C221.995 420 214 422.01 214 426V427.5C214 428.325 214.675 429 215.5 429H236.5C237.325 429 238 428.325 238 427.5V426C238 422.01 230.005 420 226 420Z" fill="#788199"/>
<path opacity="0.03" d="M45 335C48.315 335 51 332.315 51 329C51 325.685 48.315 323 45 323C41.685 323 39 325.685 39 329C39 332.315 41.685 335 45 335ZM45 338C40.995 338 33 340.01 33 344V345.5C33 346.325 33.675 347 34.5 347H55.5C56.325 347 57 346.325 57 345.5V344C57 340.01 49.005 338 45 338Z" fill="#788199"/>
<g filter="url(#filter0_f_81_15271)">
<ellipse cx="26.9347" cy="62.4727" rx="26.9347" ry="62.4727" transform="matrix(0.782853 0.622207 -0.632473 0.774582 47.2383 -18.5837)" fill="#C7D7FF"/>
</g>
<g style="mix-blend-mode:plus-lighter" filter="url(#filter1_f_81_15271)">
<path d="M165.119 -30H187.75L348 482H-4L165.119 -30Z" fill="#263048"/>
</g>
<g style="mix-blend-mode:plus-lighter" filter="url(#filter2_f_81_15271)">
<path d="M173.929 -36H192.252L322 513H37L173.929 -36Z" fill="#0C0C0C"/>
</g>
<circle opacity="0.28" cx="172" cy="275" r="132.5" stroke="url(#paint1_linear_81_15271)"/>
<circle opacity="0.28" cx="172" cy="275" r="195.5" stroke="url(#paint2_linear_81_15271)"/>
<g style="mix-blend-mode:lighten">
<path d="M141.237 163.019C141.663 161.57 142.547 160.297 143.757 159.393C144.966 158.488 146.437 157.999 147.947 158H203.872C204.979 158.001 206.07 158.265 207.055 158.77C208.041 159.275 208.892 160.006 209.539 160.905C210.186 161.803 210.61 162.842 210.777 163.936C210.944 165.031 210.849 166.149 210.499 167.2L185.613 241.887H238.825C240.134 241.886 241.417 242.253 242.528 242.945C243.639 243.638 244.533 244.628 245.108 245.804C245.684 246.98 245.918 248.294 245.783 249.596C245.649 250.898 245.151 252.136 244.347 253.17L146.479 379C145.477 380.295 144.051 381.197 142.452 381.549C140.852 381.9 139.179 381.679 137.726 380.923C136.273 380.167 135.131 378.925 134.5 377.414C133.869 375.902 133.789 374.217 134.274 372.652L159.454 290.821H112.995C111.908 290.821 110.836 290.569 109.864 290.082C108.892 289.596 108.046 288.89 107.395 288.02C106.744 287.15 106.304 286.141 106.111 285.071C105.918 284.001 105.977 282.902 106.284 281.859L141.237 163.019Z" fill="url(#paint3_radial_81_15271)"/>
</g>
<path d="M112 191C115.315 191 118 188.315 118 185C118 181.685 115.315 179 112 179C108.685 179 106 181.685 106 185C106 188.315 108.685 191 112 191ZM112 194C107.995 194 100 196.01 100 200V201.5C100 202.325 100.675 203 101.5 203H122.5C123.325 203 124 202.325 124 201.5V200C124 196.01 116.005 194 112 194Z" fill="#788199"/>
<path d="M205 167C208.315 167 211 164.315 211 161C211 157.685 208.315 155 205 155C201.685 155 199 157.685 199 161C199 164.315 201.685 167 205 167ZM205 170C200.995 170 193 172.01 193 176V177.5C193 178.325 193.675 179 194.5 179H215.5C216.325 179 217 178.325 217 177.5V176C217 172.01 209.005 170 205 170Z" fill="#788199"/>
<path d="M265 254C268.315 254 271 251.315 271 248C271 244.685 268.315 242 265 242C261.685 242 259 244.685 259 248C259 251.315 261.685 254 265 254ZM265 257C260.995 257 253 259.01 253 263V264.5C253 265.325 253.675 266 254.5 266H275.5C276.325 266 277 265.325 277 264.5V263C277 259.01 269.005 257 265 257Z" fill="#788199"/>
<path d="M205 347C208.315 347 211 344.315 211 341C211 337.685 208.315 335 205 335C201.685 335 199 337.685 199 341C199 344.315 201.685 347 205 347ZM205 350C200.995 350 193 352.01 193 356V357.5C193 358.325 193.675 359 194.5 359H215.5C216.325 359 217 358.325 217 357.5V356C217 352.01 209.005 350 205 350Z" fill="#788199"/>
<path d="M112 294C115.315 294 118 291.315 118 288C118 284.685 115.315 282 112 282C108.685 282 106 284.685 106 288C106 291.315 108.685 294 112 294ZM112 297C107.995 297 100 299.01 100 303V304.5C100 305.325 100.675 306 101.5 306H122.5C123.325 306 124 305.325 124 304.5V303C124 299.01 116.005 297 112 297Z" fill="#788199"/>
</g>
<rect x="0.5" y="0.5" width="351" height="596" rx="15.5" stroke="url(#paint4_linear_81_15271)"/>
<defs>
<filter id="filter0_f_81_15271" x="-155.184" y="-143.859" width="367.992" height="380.848" filterUnits="userSpaceOnUse" color-interpolation-filters="sRGB">
<feFlood flood-opacity="0" result="BackgroundImageFix"/>
<feBlend mode="normal" in="SourceGraphic" in2="BackgroundImageFix" result="shape"/>
<feGaussianBlur stdDeviation="69.6" result="effect1_foregroundBlur_81_15271"/>
</filter>
<filter id="filter1_f_81_15271" x="-171.7" y="-197.7" width="687.4" height="847.4" filterUnits="userSpaceOnUse" color-interpolation-filters="sRGB">
<feFlood flood-opacity="0" result="BackgroundImageFix"/>
<feBlend mode="normal" in="SourceGraphic" in2="BackgroundImageFix" result="shape"/>
<feGaussianBlur stdDeviation="83.85" result="effect1_foregroundBlur_81_15271"/>
</filter>
<filter id="filter2_f_81_15271" x="-10.2" y="-83.2" width="379.4" height="643.4" filterUnits="userSpaceOnUse" color-interpolation-filters="sRGB">
<feFlood flood-opacity="0" result="BackgroundImageFix"/>
<feBlend mode="normal" in="SourceGraphic" in2="BackgroundImageFix" result="shape"/>
<feGaussianBlur stdDeviation="23.6" result="effect1_foregroundBlur_81_15271"/>
</filter>
<linearGradient id="paint0_linear_81_15271" x1="-34.7291" y1="66.785" x2="328.191" y2="601.573" gradientUnits="userSpaceOnUse">
<stop stop-color="#0B0B0B"/>
<stop offset="1" stop-color="#1D2333"/>
</linearGradient>
<linearGradient id="paint1_linear_81_15271" x1="172" y1="142" x2="172" y2="408" gradientUnits="userSpaceOnUse">
<stop stop-color="#5C73AE"/>
<stop offset="1" stop-color="#263048"/>
</linearGradient>
<linearGradient id="paint2_linear_81_15271" x1="172" y1="79" x2="172" y2="471" gradientUnits="userSpaceOnUse">
<stop stop-color="#788199"/>
<stop offset="1" stop-color="#282B33"/>
</linearGradient>
<radialGradient id="paint3_radial_81_15271" cx="0" cy="0" r="1" gradientUnits="userSpaceOnUse" gradientTransform="translate(175.91 269.856) rotate(89.8336) scale(121.881 76.1758)">
<stop stop-color="#C7D7FF"/>
<stop offset="1" stop-color="#788199"/>
</radialGradient>
<linearGradient id="paint4_linear_81_15271" x1="352" y1="298.5" x2="0" y2="298.5" gradientUnits="userSpaceOnUse">
<stop stop-color="#7687B5"/>
<stop offset="1" stop-color="#333B4F"/>
</linearGradient>
<clipPath id="clip0_81_15271">
<rect width="352" height="597" rx="16" fill="white"/>
</clipPath>
</defs>
</svg>
