<svg width="352" height="597" viewBox="0 0 352 597" fill="none" xmlns="http://www.w3.org/2000/svg">
<g clip-path="url(#clip0_81_15293)">
<rect width="352" height="597" rx="16" fill="url(#paint0_linear_81_15293)"/>
<path opacity="0.03" d="M45 168C48.315 168 51 165.315 51 162C51 158.685 48.315 156 45 156C41.685 156 39 158.685 39 162C39 165.315 41.685 168 45 168ZM45 171C40.995 171 33 173.01 33 177V178.5C33 179.325 33.675 180 34.5 180H55.5C56.325 180 57 179.325 57 178.5V177C57 173.01 49.005 171 45 171Z" fill="#788199"/>
<path opacity="0.03" d="M238 103C241.315 103 244 100.315 244 97C244 93.685 241.315 91 238 91C234.685 91 232 93.685 232 97C232 100.315 234.685 103 238 103ZM238 106C233.995 106 226 108.01 226 112V113.5C226 114.325 226.675 115 227.5 115H248.5C249.325 115 250 114.325 250 113.5V112C250 108.01 242.005 106 238 106Z" fill="#788199"/>
<path opacity="0.03" d="M327 275C330.315 275 333 272.315 333 269C333 265.685 330.315 263 327 263C323.685 263 321 265.685 321 269C321 272.315 323.685 275 327 275ZM327 278C322.995 278 315 280.01 315 284V285.5C315 286.325 315.675 287 316.5 287H337.5C338.325 287 339 286.325 339 285.5V284C339 280.01 331.005 278 327 278Z" fill="#788199"/>
<path opacity="0.03" d="M226 417C229.315 417 232 414.315 232 411C232 407.685 229.315 405 226 405C222.685 405 220 407.685 220 411C220 414.315 222.685 417 226 417ZM226 420C221.995 420 214 422.01 214 426V427.5C214 428.325 214.675 429 215.5 429H236.5C237.325 429 238 428.325 238 427.5V426C238 422.01 230.005 420 226 420Z" fill="#788199"/>
<path opacity="0.03" d="M45 335C48.315 335 51 332.315 51 329C51 325.685 48.315 323 45 323C41.685 323 39 325.685 39 329C39 332.315 41.685 335 45 335ZM45 338C40.995 338 33 340.01 33 344V345.5C33 346.325 33.675 347 34.5 347H55.5C56.325 347 57 346.325 57 345.5V344C57 340.01 49.005 338 45 338Z" fill="#788199"/>
<g filter="url(#filter0_f_81_15293)">
<ellipse cx="26.9347" cy="62.4727" rx="26.9347" ry="62.4727" transform="matrix(0.782853 0.622207 -0.632473 0.774582 47.2383 -18.5837)" fill="#C7D7FF"/>
</g>
<g style="mix-blend-mode:plus-lighter" filter="url(#filter1_f_81_15293)">
<path d="M165.119 -30H187.75L348 482H-4L165.119 -30Z" fill="#263048"/>
</g>
<g style="mix-blend-mode:plus-lighter" filter="url(#filter2_f_81_15293)">
<path d="M173.929 -36H192.252L322 513H37L173.929 -36Z" fill="#0C0C0C"/>
</g>
<circle opacity="0.28" cx="172" cy="275" r="132.5" stroke="url(#paint1_linear_81_15293)"/>
<circle opacity="0.28" cx="172" cy="275" r="195.5" stroke="url(#paint2_linear_81_15293)"/>
<g style="mix-blend-mode:lighten">
<path d="M141.237 163.019C141.663 161.57 142.547 160.297 143.757 159.393C144.966 158.488 146.437 157.999 147.947 158H203.872C204.979 158.001 206.07 158.265 207.055 158.77C208.041 159.275 208.892 160.006 209.539 160.905C210.186 161.803 210.61 162.842 210.777 163.936C210.944 165.031 210.849 166.149 210.499 167.2L185.613 241.887H238.825C240.134 241.886 241.417 242.253 242.528 242.945C243.639 243.638 244.533 244.628 245.108 245.804C245.684 246.98 245.918 248.294 245.783 249.596C245.649 250.898 245.151 252.136 244.347 253.17L146.479 379C145.477 380.295 144.051 381.197 142.452 381.549C140.852 381.9 139.179 381.679 137.726 380.923C136.273 380.167 135.131 378.925 134.5 377.414C133.869 375.902 133.789 374.217 134.274 372.652L159.454 290.821H112.995C111.908 290.821 110.836 290.569 109.864 290.082C108.892 289.596 108.046 288.89 107.395 288.02C106.744 287.15 106.304 286.141 106.111 285.071C105.918 284.001 105.977 282.902 106.284 281.859L141.237 163.019Z" fill="url(#paint3_radial_81_15293)"/>
</g>
<path d="M140 216C143.315 216 146 213.315 146 210C146 206.685 143.315 204 140 204C136.685 204 134 206.685 134 210C134 213.315 136.685 216 140 216ZM140 219C135.995 219 128 221.01 128 225V226.5C128 227.325 128.675 228 129.5 228H150.5C151.325 228 152 227.325 152 226.5V225C152 221.01 144.005 219 140 219Z" fill="#788199"/>
<path d="M198 204C201.315 204 204 201.315 204 198C204 194.685 201.315 192 198 192C194.685 192 192 194.685 192 198C192 201.315 194.685 204 198 204ZM198 207C193.995 207 186 209.01 186 213V214.5C186 215.325 186.675 216 187.5 216H208.5C209.325 216 210 215.325 210 214.5V213C210 209.01 202.005 207 198 207Z" fill="#788199"/>
<path d="M237 253C240.315 253 243 250.315 243 247C243 243.685 240.315 241 237 241C233.685 241 231 243.685 231 247C231 250.315 233.685 253 237 253ZM237 256C232.995 256 225 258.01 225 262V263.5C225 264.325 225.675 265 226.5 265H247.5C248.325 265 249 264.325 249 263.5V262C249 258.01 241.005 256 237 256Z" fill="#788199"/>
<path d="M188 306C191.315 306 194 303.315 194 300C194 296.685 191.315 294 188 294C184.685 294 182 296.685 182 300C182 303.315 184.685 306 188 306ZM188 309C183.995 309 176 311.01 176 315V316.5C176 317.325 176.675 318 177.5 318H198.5C199.325 318 200 317.325 200 316.5V315C200 311.01 192.005 309 188 309Z" fill="#788199"/>
<path d="M140 277C143.315 277 146 274.315 146 271C146 267.685 143.315 265 140 265C136.685 265 134 267.685 134 271C134 274.315 136.685 277 140 277ZM140 280C135.995 280 128 282.01 128 286V287.5C128 288.325 128.675 289 129.5 289H150.5C151.325 289 152 288.325 152 287.5V286C152 282.01 144.005 280 140 280Z" fill="#788199"/>
</g>
<rect x="0.5" y="0.5" width="351" height="596" rx="15.5" stroke="url(#paint4_linear_81_15293)"/>
<defs>
<filter id="filter0_f_81_15293" x="-155.184" y="-143.859" width="367.992" height="380.848" filterUnits="userSpaceOnUse" color-interpolation-filters="sRGB">
<feFlood flood-opacity="0" result="BackgroundImageFix"/>
<feBlend mode="normal" in="SourceGraphic" in2="BackgroundImageFix" result="shape"/>
<feGaussianBlur stdDeviation="69.6" result="effect1_foregroundBlur_81_15293"/>
</filter>
<filter id="filter1_f_81_15293" x="-171.7" y="-197.7" width="687.4" height="847.4" filterUnits="userSpaceOnUse" color-interpolation-filters="sRGB">
<feFlood flood-opacity="0" result="BackgroundImageFix"/>
<feBlend mode="normal" in="SourceGraphic" in2="BackgroundImageFix" result="shape"/>
<feGaussianBlur stdDeviation="83.85" result="effect1_foregroundBlur_81_15293"/>
</filter>
<filter id="filter2_f_81_15293" x="-10.2" y="-83.2" width="379.4" height="643.4" filterUnits="userSpaceOnUse" color-interpolation-filters="sRGB">
<feFlood flood-opacity="0" result="BackgroundImageFix"/>
<feBlend mode="normal" in="SourceGraphic" in2="BackgroundImageFix" result="shape"/>
<feGaussianBlur stdDeviation="23.6" result="effect1_foregroundBlur_81_15293"/>
</filter>
<linearGradient id="paint0_linear_81_15293" x1="-34.7291" y1="66.785" x2="328.191" y2="601.573" gradientUnits="userSpaceOnUse">
<stop stop-color="#0B0B0B"/>
<stop offset="1" stop-color="#1D2333"/>
</linearGradient>
<linearGradient id="paint1_linear_81_15293" x1="172" y1="142" x2="172" y2="408" gradientUnits="userSpaceOnUse">
<stop stop-color="#5C73AE"/>
<stop offset="1" stop-color="#263048"/>
</linearGradient>
<linearGradient id="paint2_linear_81_15293" x1="172" y1="79" x2="172" y2="471" gradientUnits="userSpaceOnUse">
<stop stop-color="#788199"/>
<stop offset="1" stop-color="#282B33"/>
</linearGradient>
<radialGradient id="paint3_radial_81_15293" cx="0" cy="0" r="1" gradientUnits="userSpaceOnUse" gradientTransform="translate(175.91 269.856) rotate(89.8336) scale(121.881 76.1758)">
<stop stop-color="#C7D7FF"/>
<stop offset="1" stop-color="#788199"/>
</radialGradient>
<linearGradient id="paint4_linear_81_15293" x1="352" y1="298.5" x2="0" y2="298.5" gradientUnits="userSpaceOnUse">
<stop stop-color="#7687B5"/>
<stop offset="1" stop-color="#333B4F"/>
</linearGradient>
<clipPath id="clip0_81_15293">
<rect width="352" height="597" rx="16" fill="white"/>
</clipPath>
</defs>
</svg>
