<svg width="633" height="549" viewBox="0 0 633 549" fill="none" xmlns="http://www.w3.org/2000/svg">
<g style="mix-blend-mode:plus-lighter" filter="url(#filter0_f_86_15284)">
<path d="M301.252 168H316.713L426.188 396H185.719L301.252 168Z" fill="#0C0C0C"/>
</g>
<g style="mix-blend-mode:plus-lighter" filter="url(#filter1_f_86_15284)">
<path d="M310.694 168H329.789L465 380.634H168L310.694 168Z" fill="#263048"/>
</g>
<path d="M323.376 290.433H300.459V285.849H323.376V290.433ZM339.418 249.167L328.567 262.813L328.062 263.432L315.16 279.909C314.734 280.335 314.229 280.673 313.673 280.903C313.116 281.134 312.52 281.252 311.918 281.252C311.315 281.252 310.719 281.134 310.163 280.903C309.606 280.673 309.101 280.335 308.675 279.909C308.249 279.483 307.911 278.978 307.681 278.422C307.45 277.865 307.332 277.269 307.332 276.667C307.332 276.064 307.45 275.468 307.681 274.912C307.911 274.355 308.249 273.85 308.675 273.424L339.418 249.167ZM295.062 256.578C291.751 261.879 290.561 268.234 291.728 274.375H293.584V272.083C293.561 267.571 294.912 263.159 297.457 259.433L295.062 256.578ZM316.501 244.583C312.996 244.583 309.53 245.316 306.326 246.736C303.121 248.156 300.249 250.23 297.895 252.826L300.517 255.95C303.628 253.09 307.692 251.489 311.918 251.458C316.167 251.487 320.251 253.104 323.369 255.991L331.504 249.57C327.172 246.333 321.909 244.584 316.501 244.583ZM332.153 265.667L331.619 266.324L329.951 268.456C330.147 269.655 330.247 270.868 330.251 272.083V274.375H341.274C342.361 268.64 341.402 262.705 338.563 257.605L332.153 265.667Z" fill="black"/>
<path d="M323.376 290.433H300.459V285.849H323.376V290.433ZM339.418 249.167L328.567 262.813L328.062 263.432L315.16 279.909C314.734 280.335 314.229 280.673 313.673 280.903C313.116 281.134 312.52 281.252 311.918 281.252C311.315 281.252 310.719 281.134 310.163 280.903C309.606 280.673 309.101 280.335 308.675 279.909C308.249 279.483 307.911 278.978 307.681 278.422C307.45 277.865 307.332 277.269 307.332 276.667C307.332 276.064 307.45 275.468 307.681 274.912C307.911 274.355 308.249 273.85 308.675 273.424L339.418 249.167ZM295.062 256.578C291.751 261.879 290.561 268.234 291.728 274.375H293.584V272.083C293.561 267.571 294.912 263.159 297.457 259.433L295.062 256.578ZM316.501 244.583C312.996 244.583 309.53 245.316 306.326 246.736C303.121 248.156 300.249 250.23 297.895 252.826L300.517 255.95C303.628 253.09 307.692 251.489 311.918 251.458C316.167 251.487 320.251 253.104 323.369 255.991L331.504 249.57C327.172 246.333 321.909 244.584 316.501 244.583ZM332.153 265.667L331.619 266.324L329.951 268.456C330.147 269.655 330.247 270.868 330.251 272.083V274.375H341.274C342.361 268.64 341.402 262.705 338.563 257.605L332.153 265.667Z" fill="url(#paint0_radial_86_15284)"/>
<defs>
<filter id="filter0_f_86_15284" x="138.519" y="120.8" width="334.869" height="322.4" filterUnits="userSpaceOnUse" color-interpolation-filters="sRGB">
<feFlood flood-opacity="0" result="BackgroundImageFix"/>
<feBlend mode="normal" in="SourceGraphic" in2="BackgroundImageFix" result="shape"/>
<feGaussianBlur stdDeviation="23.6" result="effect1_foregroundBlur_86_15284"/>
</filter>
<filter id="filter1_f_86_15284" x="0.300003" y="0.300003" width="632.4" height="548.034" filterUnits="userSpaceOnUse" color-interpolation-filters="sRGB">
<feFlood flood-opacity="0" result="BackgroundImageFix"/>
<feBlend mode="normal" in="SourceGraphic" in2="BackgroundImageFix" result="shape"/>
<feGaussianBlur stdDeviation="83.85" result="effect1_foregroundBlur_86_15284"/>
</filter>
<radialGradient id="paint0_radial_86_15284" cx="0" cy="0" r="1" gradientUnits="userSpaceOnUse" gradientTransform="translate(316.501 267.508) rotate(89.7072) scale(24.9795 27.4687)">
<stop stop-color="#C7D7FF"/>
<stop offset="1" stop-color="#788199"/>
</radialGradient>
</defs>
</svg>
