<svg width="633" height="549" viewBox="0 0 633 549" fill="none" xmlns="http://www.w3.org/2000/svg">
<g style="mix-blend-mode:plus-lighter" filter="url(#filter0_f_86_15308)">
<path d="M301.252 168H316.713L426.188 396H185.719L301.252 168Z" fill="#0C0C0C"/>
</g>
<g style="mix-blend-mode:plus-lighter" filter="url(#filter1_f_86_15308)">
<path d="M310.694 168H329.789L465 380.634H168L310.694 168Z" fill="#263048"/>
</g>
<path d="M317.503 244.247C319.226 246.731 320.797 249.318 322.206 251.993C322.413 251.963 322.622 251.949 322.831 251.948C323.677 251.949 324.504 252.187 325.221 252.636C325.937 253.084 326.512 253.726 326.88 254.486C328.883 254.307 330.893 254.201 332.904 254.168C334.062 254.151 335.226 254.157 336.394 254.188C331.966 248.479 325.194 244.687 317.503 244.247ZM313.856 244.295C313.768 244.302 313.679 244.307 313.591 244.315C311.566 248.458 309.982 252.553 308.85 256.594C309.335 256.894 309.759 257.284 310.099 257.743C312.828 256.918 315.598 256.231 318.397 255.685C318.546 254.818 318.947 254.013 319.549 253.371C317.931 250.303 316.039 247.276 313.856 244.295ZM309.992 244.908C303.736 246.398 298.263 250.173 294.649 255.492C297.418 256.128 300.16 256.878 302.867 257.741C303.232 257.249 303.693 256.837 304.222 256.53C304.751 256.223 305.338 256.027 305.946 255.954C306.951 252.292 308.299 248.607 309.992 244.908ZM334.666 257.159C332.157 257.143 329.674 257.245 327.215 257.459C326.996 258.408 326.476 259.26 325.732 259.888C326.559 262.113 327.264 264.381 327.842 266.684C328.43 266.746 329 266.924 329.519 267.207C330.038 267.489 330.496 267.872 330.868 268.331C334.346 267.29 337.888 266.475 341.472 265.892C340.989 262.861 339.966 259.941 338.45 257.272C337.182 257.205 335.921 257.168 334.666 257.159ZM293.038 258.216C291.74 260.744 290.871 263.47 290.467 266.284C294.243 264.116 298.082 262.225 301.987 260.621L301.986 260.603C299.087 259.678 296.1 258.89 293.038 258.216ZM318.895 258.626C316.225 259.147 313.583 259.802 310.979 260.588C310.977 260.639 310.974 260.69 310.971 260.741C315.621 262.712 320.088 265.09 324.319 267.848C324.516 267.667 324.728 267.505 324.954 267.362C324.404 265.188 323.736 263.046 322.952 260.945L322.831 260.948C322.028 260.948 321.239 260.732 320.547 260.324C319.855 259.915 319.284 259.329 318.895 258.626M303.103 263.39C298.728 265.194 294.429 267.376 290.202 269.917L290.199 270C290.199 276.82 292.835 283.007 297.139 287.614C299.593 285.418 302.155 283.345 304.813 281.401C303.685 275.822 303.522 270.118 304.261 264.334C303.825 264.087 303.434 263.769 303.103 263.392M309.775 263.488C309.084 264.23 308.162 264.717 307.159 264.87C306.528 269.847 306.618 274.738 307.464 279.536C312.359 276.215 317.491 273.423 322.867 271.188V271.16C322.868 270.941 322.884 270.722 322.917 270.506C318.758 267.773 314.359 265.424 309.775 263.488ZM341.771 268.884C338.425 269.438 335.118 270.201 331.867 271.169C331.866 271.821 331.723 272.465 331.448 273.057C334.305 275.391 337.004 277.911 339.529 280.6C341.03 277.268 341.804 273.654 341.799 270C341.799 269.626 341.787 269.254 341.771 268.884ZM323.88 274.001C318.375 276.299 313.134 279.211 308.137 282.704C309.229 287.107 310.967 291.43 313.374 295.669C314.237 295.756 315.112 295.8 315.999 295.8C319.498 295.8 322.831 295.104 325.871 293.848C326.887 287.599 327.087 281.505 326.43 275.56C325.427 275.346 324.528 274.796 323.88 274.001ZM329.389 275.237C330.007 280.787 329.914 286.451 329.143 292.212C332.788 290.055 335.847 287.035 338.052 283.419C335.367 280.485 332.472 277.75 329.389 275.238M305.563 284.571C303.412 286.192 301.328 287.9 299.317 289.692C302.3 292.225 305.822 294.043 309.615 295.007C307.863 291.589 306.517 288.107 305.563 284.571Z" fill="black"/>
<path d="M317.503 244.247C319.226 246.731 320.797 249.318 322.206 251.993C322.413 251.963 322.622 251.949 322.831 251.948C323.677 251.949 324.504 252.187 325.221 252.636C325.937 253.084 326.512 253.726 326.88 254.486C328.883 254.307 330.893 254.201 332.904 254.168C334.062 254.151 335.226 254.157 336.394 254.188C331.966 248.479 325.194 244.687 317.503 244.247ZM313.856 244.295C313.768 244.302 313.679 244.307 313.591 244.315C311.566 248.458 309.982 252.553 308.85 256.594C309.335 256.894 309.759 257.284 310.099 257.743C312.828 256.918 315.598 256.231 318.397 255.685C318.546 254.818 318.947 254.013 319.549 253.371C317.931 250.303 316.039 247.276 313.856 244.295ZM309.992 244.908C303.736 246.398 298.263 250.173 294.649 255.492C297.418 256.128 300.16 256.878 302.867 257.741C303.232 257.249 303.693 256.837 304.222 256.53C304.751 256.223 305.338 256.027 305.946 255.954C306.951 252.292 308.299 248.607 309.992 244.908ZM334.666 257.159C332.157 257.143 329.674 257.245 327.215 257.459C326.996 258.408 326.476 259.26 325.732 259.888C326.559 262.113 327.264 264.381 327.842 266.684C328.43 266.746 329 266.924 329.519 267.207C330.038 267.489 330.496 267.872 330.868 268.331C334.346 267.29 337.888 266.475 341.472 265.892C340.989 262.861 339.966 259.941 338.45 257.272C337.182 257.205 335.921 257.168 334.666 257.159ZM293.038 258.216C291.74 260.744 290.871 263.47 290.467 266.284C294.243 264.116 298.082 262.225 301.987 260.621L301.986 260.603C299.087 259.678 296.1 258.89 293.038 258.216ZM318.895 258.626C316.225 259.147 313.583 259.802 310.979 260.588C310.977 260.639 310.974 260.69 310.971 260.741C315.621 262.712 320.088 265.09 324.319 267.848C324.516 267.667 324.728 267.505 324.954 267.362C324.404 265.188 323.736 263.046 322.952 260.945L322.831 260.948C322.028 260.948 321.239 260.732 320.547 260.324C319.855 259.915 319.284 259.329 318.895 258.626M303.103 263.39C298.728 265.194 294.429 267.376 290.202 269.917L290.199 270C290.199 276.82 292.835 283.007 297.139 287.614C299.593 285.418 302.155 283.345 304.813 281.401C303.685 275.822 303.522 270.118 304.261 264.334C303.825 264.087 303.434 263.769 303.103 263.392M309.775 263.488C309.084 264.23 308.162 264.717 307.159 264.87C306.528 269.847 306.618 274.738 307.464 279.536C312.359 276.215 317.491 273.423 322.867 271.188V271.16C322.868 270.941 322.884 270.722 322.917 270.506C318.758 267.773 314.359 265.424 309.775 263.488ZM341.771 268.884C338.425 269.438 335.118 270.201 331.867 271.169C331.866 271.821 331.723 272.465 331.448 273.057C334.305 275.391 337.004 277.911 339.529 280.6C341.03 277.268 341.804 273.654 341.799 270C341.799 269.626 341.787 269.254 341.771 268.884ZM323.88 274.001C318.375 276.299 313.134 279.211 308.137 282.704C309.229 287.107 310.967 291.43 313.374 295.669C314.237 295.756 315.112 295.8 315.999 295.8C319.498 295.8 322.831 295.104 325.871 293.848C326.887 287.599 327.087 281.505 326.43 275.56C325.427 275.346 324.528 274.796 323.88 274.001ZM329.389 275.237C330.007 280.787 329.914 286.451 329.143 292.212C332.788 290.055 335.847 287.035 338.052 283.419C335.367 280.485 332.472 277.75 329.389 275.238M305.563 284.571C303.412 286.192 301.328 287.9 299.317 289.692C302.3 292.225 305.822 294.043 309.615 295.007C307.863 291.589 306.517 288.107 305.563 284.571Z" fill="url(#paint0_radial_86_15308)"/>
<defs>
<filter id="filter0_f_86_15308" x="138.519" y="120.8" width="334.869" height="322.4" filterUnits="userSpaceOnUse" color-interpolation-filters="sRGB">
<feFlood flood-opacity="0" result="BackgroundImageFix"/>
<feBlend mode="normal" in="SourceGraphic" in2="BackgroundImageFix" result="shape"/>
<feGaussianBlur stdDeviation="23.6" result="effect1_foregroundBlur_86_15308"/>
</filter>
<filter id="filter1_f_86_15308" x="0.300003" y="0.300003" width="632.4" height="548.034" filterUnits="userSpaceOnUse" color-interpolation-filters="sRGB">
<feFlood flood-opacity="0" result="BackgroundImageFix"/>
<feBlend mode="normal" in="SourceGraphic" in2="BackgroundImageFix" result="shape"/>
<feGaussianBlur stdDeviation="83.85" result="effect1_foregroundBlur_86_15308"/>
</filter>
<radialGradient id="paint0_radial_86_15308" cx="0" cy="0" r="1" gradientUnits="userSpaceOnUse" gradientTransform="translate(315.999 270.023) rotate(89.7335) scale(28.087 28.1121)">
<stop stop-color="#C7D7FF"/>
<stop offset="1" stop-color="#788199"/>
</radialGradient>
</defs>
</svg>
