<svg width="633" height="549" viewBox="0 0 633 549" fill="none" xmlns="http://www.w3.org/2000/svg">
<g style="mix-blend-mode:plus-lighter" filter="url(#filter0_f_86_15293)">
<path d="M301.252 168H316.713L426.188 396H185.719L301.252 168Z" fill="#0C0C0C"/>
</g>
<g style="mix-blend-mode:plus-lighter" filter="url(#filter1_f_86_15293)">
<path d="M310.694 168H329.789L465 380.634H168L310.694 168Z" fill="#263048"/>
</g>
<mask id="mask0_86_15293" style="mask-type:luminance" maskUnits="userSpaceOnUse" x="290" y="249" width="52" height="42">
<path d="M338.959 250H293.041C291.914 250 291 250.914 291 252.041V287.959C291 289.086 291.914 290 293.041 290H338.959C340.086 290 341 289.086 341 287.959V252.041C341 250.914 340.086 250 338.959 250Z" fill="white" stroke="white" stroke-width="2"/>
<path d="M306 263.685C303.5 260 299.122 262.423 299.436 266.21C299.75 270 304.75 270 305.061 273.79C305.375 277.578 301 280 298.5 276.314M318.5 262.5H313.5V278.75H318.5M313.5 271.25H318.5" stroke="black" stroke-width="2" stroke-linecap="round" stroke-linejoin="round"/>
<path d="M333.5 266.25C333.5 264.179 331.821 262.5 329.75 262.5C327.679 262.5 326 264.179 326 266.25V275C326 277.071 327.679 278.75 329.75 278.75C331.821 278.75 333.5 277.071 333.5 275V266.25Z" stroke="black" stroke-width="2" stroke-linecap="round" stroke-linejoin="round"/>
</mask>
<g mask="url(#mask0_86_15293)">
<path d="M286 240H346V300H286V240Z" fill="black"/>
<path d="M286 240H346V300H286V240Z" fill="url(#paint0_radial_86_15293)"/>
</g>
<defs>
<filter id="filter0_f_86_15293" x="138.519" y="120.8" width="334.869" height="322.4" filterUnits="userSpaceOnUse" color-interpolation-filters="sRGB">
<feFlood flood-opacity="0" result="BackgroundImageFix"/>
<feBlend mode="normal" in="SourceGraphic" in2="BackgroundImageFix" result="shape"/>
<feGaussianBlur stdDeviation="23.6" result="effect1_foregroundBlur_86_15293"/>
</filter>
<filter id="filter1_f_86_15293" x="0.300003" y="0.300003" width="632.4" height="548.034" filterUnits="userSpaceOnUse" color-interpolation-filters="sRGB">
<feFlood flood-opacity="0" result="BackgroundImageFix"/>
<feBlend mode="normal" in="SourceGraphic" in2="BackgroundImageFix" result="shape"/>
<feGaussianBlur stdDeviation="83.85" result="effect1_foregroundBlur_86_15293"/>
</filter>
<radialGradient id="paint0_radial_86_15293" cx="0" cy="0" r="1" gradientUnits="userSpaceOnUse" gradientTransform="translate(316 270) rotate(89.7337) scale(32.6889 32.6885)">
<stop stop-color="#C7D7FF"/>
<stop offset="1" stop-color="#788199"/>
</radialGradient>
</defs>
</svg>
