<svg width="633" height="549" viewBox="0 0 633 549" fill="none" xmlns="http://www.w3.org/2000/svg">
<g style="mix-blend-mode:plus-lighter" filter="url(#filter0_f_86_15275)">
<path d="M301.252 168H316.713L426.188 396H185.719L301.252 168Z" fill="#0C0C0C"/>
</g>
<g style="mix-blend-mode:plus-lighter" filter="url(#filter1_f_86_15275)">
<path d="M310.694 168H329.789L465 380.634H168L310.694 168Z" fill="#263048"/>
</g>
<path d="M315.833 286.333C311.657 286.333 308.083 284.913 305.112 282.071C302.142 279.229 300.549 275.742 300.333 271.608L305.758 273.223C306.318 275.548 307.524 277.454 309.375 278.94C311.226 280.426 313.379 281.168 315.833 281.167C318.675 281.167 321.108 280.155 323.131 278.131C325.155 276.108 326.167 273.675 326.167 270.833C326.167 268.379 325.424 266.226 323.94 264.375C322.455 262.524 320.55 261.318 318.223 260.758L316.608 255.333C320.742 255.549 324.229 257.142 327.071 260.113C329.912 263.083 331.333 266.657 331.333 270.833C331.333 275.139 329.826 278.799 326.812 281.813C323.799 284.826 320.139 286.333 315.833 286.333ZM315.833 296.667C312.26 296.667 308.901 295.988 305.758 294.631C302.615 293.274 299.881 291.434 297.556 289.11C295.231 286.787 293.391 284.053 292.036 280.908C290.68 277.764 290.002 274.405 290 270.833V269.671C290 269.283 290.043 268.896 290.129 268.508L295.167 270.058V270.833C295.167 276.603 297.169 281.49 301.173 285.494C305.177 289.498 310.064 291.5 315.833 291.5C321.603 291.5 326.49 289.498 330.494 285.494C334.498 281.49 336.5 276.603 336.5 270.833C336.5 265.064 334.498 260.177 330.494 256.173C326.49 252.169 321.603 250.167 315.833 250.167H315.058L313.508 245.129C313.896 245.043 314.283 245 314.671 245H315.833C319.407 245 322.765 245.679 325.908 247.036C329.051 248.393 331.785 250.233 334.11 252.556C336.435 254.88 338.276 257.614 339.634 260.758C340.991 263.903 341.668 267.261 341.667 270.833C341.665 274.405 340.986 277.764 339.631 280.908C338.276 284.053 336.435 286.787 334.11 289.11C331.785 291.434 329.051 293.275 325.908 294.634C322.765 295.992 319.407 296.67 315.833 296.667ZM312.023 272.125L300.979 261.081L297.75 270.833L290 245L315.833 252.75L306.081 255.979L317.125 267.023L312.023 272.125Z" fill="url(#paint0_radial_86_15275)"/>
<defs>
<filter id="filter0_f_86_15275" x="138.519" y="120.8" width="334.869" height="322.4" filterUnits="userSpaceOnUse" color-interpolation-filters="sRGB">
<feFlood flood-opacity="0" result="BackgroundImageFix"/>
<feBlend mode="normal" in="SourceGraphic" in2="BackgroundImageFix" result="shape"/>
<feGaussianBlur stdDeviation="23.6" result="effect1_foregroundBlur_86_15275"/>
</filter>
<filter id="filter1_f_86_15275" x="0.300003" y="0.300003" width="632.4" height="548.034" filterUnits="userSpaceOnUse" color-interpolation-filters="sRGB">
<feFlood flood-opacity="0" result="BackgroundImageFix"/>
<feBlend mode="normal" in="SourceGraphic" in2="BackgroundImageFix" result="shape"/>
<feGaussianBlur stdDeviation="83.85" result="effect1_foregroundBlur_86_15275"/>
</filter>
<radialGradient id="paint0_radial_86_15275" cx="0" cy="0" r="1" gradientUnits="userSpaceOnUse" gradientTransform="translate(315.833 270.833) rotate(89.7337) scale(28.1488 28.1484)">
<stop stop-color="#C7D7FF"/>
<stop offset="1" stop-color="#788199"/>
</radialGradient>
</defs>
</svg>
