<svg width="633" height="549" viewBox="0 0 633 549" fill="none" xmlns="http://www.w3.org/2000/svg">
<g style="mix-blend-mode:plus-lighter" filter="url(#filter0_f_86_15317)">
<path d="M301.252 168H316.713L426.188 396H185.719L301.252 168Z" fill="#0C0C0C"/>
</g>
<g style="mix-blend-mode:plus-lighter" filter="url(#filter1_f_86_15317)">
<path d="M310.694 168H329.789L465 380.634H168L310.694 168Z" fill="#263048"/>
</g>
<path d="M339.806 271.611C340.762 273.426 341.351 275.411 341.539 277.453C341.728 279.495 341.512 281.555 340.904 283.513C340.296 285.472 339.308 287.292 337.996 288.868C336.685 290.445 335.075 291.748 333.26 292.702L328.246 295.344L327.014 295.992C325.881 296.588 324.627 296.916 323.347 296.95C322.068 296.984 320.798 296.724 319.635 296.19L300.056 287.825L301.899 282.355L313.543 284.604L307.513 273.146L297.805 254.699L302.534 252.211L312.243 270.663L314.579 269.434L310.299 261.296L315.026 258.809L319.305 266.947L321.641 265.719L318.337 259.438L323.066 256.95L326.371 263.231L328.708 261.991L326.44 257.669L331.168 255.187L333.436 259.51L339.805 271.615L339.806 271.611ZM294.586 257.188C293.603 256.205 292.934 254.953 292.663 253.589C292.392 252.226 292.53 250.813 293.061 249.528C293.592 248.244 294.492 247.145 295.647 246.372C296.802 245.598 298.16 245.184 299.55 245.181C300.676 245.183 301.786 245.454 302.786 245.973C303.786 246.492 304.647 247.243 305.296 248.163C305.946 249.084 306.365 250.146 306.519 251.262C306.673 252.378 306.557 253.514 306.18 254.576L307.421 256.922C308.251 255.53 308.698 253.944 308.716 252.324C308.734 250.704 308.323 249.108 307.524 247.698C306.725 246.289 305.568 245.116 304.169 244.299C302.77 243.482 301.179 243.05 299.559 243.047C297.185 243.047 294.904 243.968 293.195 245.617C291.487 247.265 290.484 249.512 290.399 251.884C290.313 254.257 291.151 256.57 292.737 258.337C294.322 260.104 296.531 261.187 298.899 261.359L297.651 258.987C296.492 258.661 295.436 258.042 294.586 257.188Z" fill="black"/>
<path d="M339.806 271.611C340.762 273.426 341.351 275.411 341.539 277.453C341.728 279.495 341.512 281.555 340.904 283.513C340.296 285.472 339.308 287.292 337.996 288.868C336.685 290.445 335.075 291.748 333.26 292.702L328.246 295.344L327.014 295.992C325.881 296.588 324.627 296.916 323.347 296.95C322.068 296.984 320.798 296.724 319.635 296.19L300.056 287.825L301.899 282.355L313.543 284.604L307.513 273.146L297.805 254.699L302.534 252.211L312.243 270.663L314.579 269.434L310.299 261.296L315.026 258.809L319.305 266.947L321.641 265.719L318.337 259.438L323.066 256.95L326.371 263.231L328.708 261.991L326.44 257.669L331.168 255.187L333.436 259.51L339.805 271.615L339.806 271.611ZM294.586 257.188C293.603 256.205 292.934 254.953 292.663 253.589C292.392 252.226 292.53 250.813 293.061 249.528C293.592 248.244 294.492 247.145 295.647 246.372C296.802 245.598 298.16 245.184 299.55 245.181C300.676 245.183 301.786 245.454 302.786 245.973C303.786 246.492 304.647 247.243 305.296 248.163C305.946 249.084 306.365 250.146 306.519 251.262C306.673 252.378 306.557 253.514 306.18 254.576L307.421 256.922C308.251 255.53 308.698 253.944 308.716 252.324C308.734 250.704 308.323 249.108 307.524 247.698C306.725 246.289 305.568 245.116 304.169 244.299C302.77 243.482 301.179 243.05 299.559 243.047C297.185 243.047 294.904 243.968 293.195 245.617C291.487 247.265 290.484 249.512 290.399 251.884C290.313 254.257 291.151 256.57 292.737 258.337C294.322 260.104 296.531 261.187 298.899 261.359L297.651 258.987C296.492 258.661 295.436 258.042 294.586 257.188Z" fill="url(#paint0_radial_86_15317)"/>
<defs>
<filter id="filter0_f_86_15317" x="138.519" y="120.8" width="334.869" height="322.4" filterUnits="userSpaceOnUse" color-interpolation-filters="sRGB">
<feFlood flood-opacity="0" result="BackgroundImageFix"/>
<feBlend mode="normal" in="SourceGraphic" in2="BackgroundImageFix" result="shape"/>
<feGaussianBlur stdDeviation="23.6" result="effect1_foregroundBlur_86_15317"/>
</filter>
<filter id="filter1_f_86_15317" x="0.300003" y="0.300003" width="632.4" height="548.034" filterUnits="userSpaceOnUse" color-interpolation-filters="sRGB">
<feFlood flood-opacity="0" result="BackgroundImageFix"/>
<feBlend mode="normal" in="SourceGraphic" in2="BackgroundImageFix" result="shape"/>
<feGaussianBlur stdDeviation="83.85" result="effect1_foregroundBlur_86_15317"/>
</filter>
<radialGradient id="paint0_radial_86_15317" cx="0" cy="0" r="1" gradientUnits="userSpaceOnUse" gradientTransform="translate(315.999 270) rotate(89.747) scale(29.3689 27.9012)">
<stop stop-color="#C7D7FF"/>
<stop offset="1" stop-color="#788199"/>
</radialGradient>
</defs>
</svg>
