<svg width="633" height="549" viewBox="0 0 633 549" fill="none" xmlns="http://www.w3.org/2000/svg">
<g style="mix-blend-mode:plus-lighter" filter="url(#filter0_f_86_15326)">
<path d="M301.252 168H316.713L426.188 396H185.719L301.252 168Z" fill="#0C0C0C"/>
</g>
<g style="mix-blend-mode:plus-lighter" filter="url(#filter1_f_86_15326)">
<path d="M310.694 168H329.789L465 380.634H168L310.694 168Z" fill="#263048"/>
</g>
<path d="M331 270C331 271.375 332.125 272.5 333.5 272.5H338.5C339.875 272.5 341 271.375 341 270C341 268.625 339.875 267.5 338.5 267.5H333.5C332.125 267.5 331 268.625 331 270ZM327.475 282.05C327.279 282.306 327.136 282.599 327.054 282.911C326.973 283.223 326.955 283.549 327.002 283.868C327.049 284.187 327.159 284.494 327.326 284.77C327.493 285.046 327.714 285.286 327.975 285.475C329.3 286.45 330.7 287.5 332.025 288.5C333.125 289.325 334.675 289.1 335.475 288C335.475 287.975 335.5 287.975 335.5 287.95C335.696 287.691 335.838 287.397 335.919 287.083C336 286.768 336.017 286.442 335.971 286.121C335.924 285.8 335.814 285.491 335.648 285.213C335.481 284.935 335.261 284.693 335 284.5C333.675 283.5 332.275 282.45 330.975 281.475C330.712 281.281 330.414 281.141 330.097 281.062C329.781 280.983 329.451 280.968 329.129 281.017C328.806 281.066 328.496 281.178 328.216 281.346C327.937 281.515 327.693 281.737 327.5 282C327.5 282.025 327.475 282.05 327.475 282.05ZM335.525 252.025C335.525 252 335.5 252 335.5 251.975C335.308 251.714 335.065 251.494 334.787 251.327C334.509 251.161 334.2 251.051 333.879 251.004C333.559 250.958 333.232 250.975 332.918 251.056C332.603 251.137 332.309 251.279 332.05 251.475C330.725 252.475 329.3 253.525 328 254.525C326.9 255.35 326.7 256.9 327.525 257.975C327.525 258 327.55 258 327.55 258.025C328.375 259.125 329.9 259.35 331 258.525C332.325 257.55 333.725 256.475 335.05 255.475C336.125 254.675 336.325 253.125 335.525 252.025ZM306 262.5H296C293.25 262.5 291 264.75 291 267.5V272.5C291 275.25 293.25 277.5 296 277.5H298.5V285C298.5 286.375 299.625 287.5 301 287.5C302.375 287.5 303.5 286.375 303.5 285V277.5H306L318.5 285V255L306 262.5ZM324.75 270C324.75 266.675 323.3 263.675 321 261.625V278.35C323.3 276.325 324.75 273.325 324.75 270Z" fill="black"/>
<path d="M331 270C331 271.375 332.125 272.5 333.5 272.5H338.5C339.875 272.5 341 271.375 341 270C341 268.625 339.875 267.5 338.5 267.5H333.5C332.125 267.5 331 268.625 331 270ZM327.475 282.05C327.279 282.306 327.136 282.599 327.054 282.911C326.973 283.223 326.955 283.549 327.002 283.868C327.049 284.187 327.159 284.494 327.326 284.77C327.493 285.046 327.714 285.286 327.975 285.475C329.3 286.45 330.7 287.5 332.025 288.5C333.125 289.325 334.675 289.1 335.475 288C335.475 287.975 335.5 287.975 335.5 287.95C335.696 287.691 335.838 287.397 335.919 287.083C336 286.768 336.017 286.442 335.971 286.121C335.924 285.8 335.814 285.491 335.648 285.213C335.481 284.935 335.261 284.693 335 284.5C333.675 283.5 332.275 282.45 330.975 281.475C330.712 281.281 330.414 281.141 330.097 281.062C329.781 280.983 329.451 280.968 329.129 281.017C328.806 281.066 328.496 281.178 328.216 281.346C327.937 281.515 327.693 281.737 327.5 282C327.5 282.025 327.475 282.05 327.475 282.05ZM335.525 252.025C335.525 252 335.5 252 335.5 251.975C335.308 251.714 335.065 251.494 334.787 251.327C334.509 251.161 334.2 251.051 333.879 251.004C333.559 250.958 333.232 250.975 332.918 251.056C332.603 251.137 332.309 251.279 332.05 251.475C330.725 252.475 329.3 253.525 328 254.525C326.9 255.35 326.7 256.9 327.525 257.975C327.525 258 327.55 258 327.55 258.025C328.375 259.125 329.9 259.35 331 258.525C332.325 257.55 333.725 256.475 335.05 255.475C336.125 254.675 336.325 253.125 335.525 252.025ZM306 262.5H296C293.25 262.5 291 264.75 291 267.5V272.5C291 275.25 293.25 277.5 296 277.5H298.5V285C298.5 286.375 299.625 287.5 301 287.5C302.375 287.5 303.5 286.375 303.5 285V277.5H306L318.5 285V255L306 262.5ZM324.75 270C324.75 266.675 323.3 263.675 321 261.625V278.35C323.3 276.325 324.75 273.325 324.75 270Z" fill="url(#paint0_radial_86_15326)"/>
<defs>
<filter id="filter0_f_86_15326" x="138.519" y="120.8" width="334.869" height="322.4" filterUnits="userSpaceOnUse" color-interpolation-filters="sRGB">
<feFlood flood-opacity="0" result="BackgroundImageFix"/>
<feBlend mode="normal" in="SourceGraphic" in2="BackgroundImageFix" result="shape"/>
<feGaussianBlur stdDeviation="23.6" result="effect1_foregroundBlur_86_15326"/>
</filter>
<filter id="filter1_f_86_15326" x="0.300003" y="0.300003" width="632.4" height="548.034" filterUnits="userSpaceOnUse" color-interpolation-filters="sRGB">
<feFlood flood-opacity="0" result="BackgroundImageFix"/>
<feBlend mode="normal" in="SourceGraphic" in2="BackgroundImageFix" result="shape"/>
<feGaussianBlur stdDeviation="83.85" result="effect1_foregroundBlur_86_15326"/>
</filter>
<radialGradient id="paint0_radial_86_15326" cx="0" cy="0" r="1" gradientUnits="userSpaceOnUse" gradientTransform="translate(316 269.988) rotate(89.6498) scale(20.7132 27.2402)">
<stop stop-color="#C7D7FF"/>
<stop offset="1" stop-color="#788199"/>
</radialGradient>
</defs>
</svg>
