<svg width="16" height="273" viewBox="0 0 16 273" fill="none" xmlns="http://www.w3.org/2000/svg">
<line x1="8.46795" y1="25" x2="8.46794" y2="272.077" stroke="url(#paint0_linear_89_15529)" stroke-width="0.935897"/>
<rect width="15.9103" height="22.4615" rx="3.74359" fill="url(#paint1_linear_89_15529)"/>
<circle cx="3.74351" cy="3.74351" r="0.935897" fill="#D9D9D9"/>
<circle cx="12.1664" cy="3.74351" r="0.935897" fill="#D9D9D9"/>
<circle cx="3.74351" cy="19.6151" r="0.935897" fill="#D9D9D9"/>
<circle cx="12.1664" cy="19.6151" r="0.935897" fill="#D9D9D9"/>
<circle cx="3.74351" cy="3.74351" r="0.935897" fill="#D9D9D9"/>
<circle cx="12.1664" cy="3.74351" r="0.935897" fill="#D9D9D9"/>
<circle cx="3.74351" cy="19.6151" r="0.935897" fill="#D9D9D9"/>
<circle cx="12.1664" cy="19.6151" r="0.935897" fill="#D9D9D9"/>
<rect width="15.9103" height="22.4615" rx="3.74359" transform="matrix(1 0 0 -1 0 272.077)" fill="url(#paint2_linear_89_15529)"/>
<circle cx="0.935897" cy="0.935897" r="0.935897" transform="matrix(1 0 0 -1 2.80762 269.27)" fill="#D9D9D9"/>
<circle cx="0.935897" cy="0.935897" r="0.935897" transform="matrix(1 0 0 -1 11.2305 269.27)" fill="#D9D9D9"/>
<circle cx="0.935897" cy="0.935897" r="0.935897" transform="matrix(1 0 0 -1 2.80762 253.398)" fill="#D9D9D9"/>
<circle cx="0.935897" cy="0.935897" r="0.935897" transform="matrix(1 0 0 -1 11.2305 253.398)" fill="#D9D9D9"/>
<circle cx="0.935897" cy="0.935897" r="0.935897" transform="matrix(1 0 0 -1 2.80762 269.27)" fill="#D9D9D9"/>
<circle cx="0.935897" cy="0.935897" r="0.935897" transform="matrix(1 0 0 -1 11.2305 269.27)" fill="#D9D9D9"/>
<circle cx="0.935897" cy="0.935897" r="0.935897" transform="matrix(1 0 0 -1 2.80762 253.398)" fill="#D9D9D9"/>
<circle cx="0.935897" cy="0.935897" r="0.935897" transform="matrix(1 0 0 -1 11.2305 253.398)" fill="#D9D9D9"/>
<defs>
<linearGradient id="paint0_linear_89_15529" x1="7.5" y1="25" x2="7.49999" y2="272.077" gradientUnits="userSpaceOnUse">
<stop stop-color="#263048"/>
<stop offset="0.515" stop-color="#5C73AE"/>
<stop offset="1" stop-color="#263048"/>
</linearGradient>
<linearGradient id="paint1_linear_89_15529" x1="7.48718" y1="-10.2949" x2="8.42308" y2="26.6731" gradientUnits="userSpaceOnUse">
<stop stop-color="#333B4F"/>
<stop offset="1" stop-color="#7687B5"/>
</linearGradient>
<linearGradient id="paint2_linear_89_15529" x1="7.48718" y1="-10.2949" x2="8.42308" y2="26.6731" gradientUnits="userSpaceOnUse">
<stop stop-color="#333B4F"/>
<stop offset="1" stop-color="#7687B5"/>
</linearGradient>
</defs>
</svg>
